<svg width="17" height="21" viewBox="0 0 17 21" fill="none" xmlns="http://www.w3.org/2000/svg">
<path d="M11.5713 3.34928C11.9659 2.8918 12.2669 2.36042 12.4568 1.78565C12.6467 1.21089 12.7218 0.604054 12.6779 0C11.4662 0.0983648 10.3414 0.671489 9.54592 1.59589C9.16497 2.03894 8.87629 2.55435 8.69696 3.11162C8.51764 3.66889 8.45132 4.25667 8.50194 4.84018C9.09299 4.84513 9.67724 4.71324 10.2095 4.45471C10.7417 4.19617 11.2077 3.81794 11.5713 3.34928ZM14.2021 11.1608C14.2091 10.3562 14.4198 9.56677 14.8144 8.86687C15.2089 8.16697 15.7743 7.57972 16.4571 7.16052C16.0262 6.53607 15.4565 6.02117 14.7933 5.65668C14.13 5.29219 13.3914 5.08812 12.6361 5.06066C11.0075 4.89267 9.50417 6.0161 8.63766 6.0161C7.77114 6.0161 6.54968 5.08166 5.19249 5.10266C4.30524 5.13205 3.4407 5.39221 2.68321 5.85776C1.92572 6.3233 1.30114 6.97834 0.870384 7.75898C-0.967035 10.9718 0.400589 15.749 2.23801 18.3423C3.0732 19.6127 4.11719 21.0511 5.49525 20.9986C6.87332 20.9461 7.32223 20.1377 8.91953 20.1377C10.5168 20.1377 11.0075 20.9986 12.3647 20.9671C13.7219 20.9356 14.6823 19.6652 15.5593 18.3948C16.1805 17.4724 16.6658 16.4646 17 15.4025C16.1726 15.0476 15.4667 14.4568 14.9695 13.703C14.4723 12.9491 14.2055 12.0654 14.2021 11.1608Z" fill="black"/>
</svg>
