<svg width="21" height="23" viewBox="0 0 21 23" fill="none" xmlns="http://www.w3.org/2000/svg">
<path d="M19.7383 16.2747C18.8704 15.3422 17.2464 13.9393 17.2464 9.34375C17.2464 5.85332 14.7991 3.05918 11.4991 2.37367V1.4375C11.4991 0.64373 10.8558 0 10.0625 0C9.26921 0 8.62593 0.64373 8.62593 1.4375V2.37367C5.32597 3.05918 2.87862 5.85332 2.87862 9.34375C2.87862 13.9393 1.2547 15.3422 0.386808 16.2747C0.117277 16.5645 -0.00221504 16.9108 3.10585e-05 17.25C0.00497246 17.9867 0.583117 18.6875 1.44202 18.6875H18.683C19.5419 18.6875 20.1205 17.9867 20.125 17.25C20.1273 16.9108 20.0078 16.564 19.7383 16.2747ZM3.0336 16.5312C3.98685 15.2748 5.02903 13.1922 5.03398 9.3698C5.03398 9.36082 5.03128 9.35273 5.03128 9.34375C5.03128 6.56488 7.28366 4.3125 10.0625 4.3125C12.8414 4.3125 15.0938 6.56488 15.0938 9.34375C15.0938 9.35273 15.0911 9.36082 15.0911 9.3698C15.096 13.1927 16.1382 15.2752 17.0915 16.5312H3.0336ZM10.0625 23C11.6492 23 12.9362 21.713 12.9362 20.125H7.18888C7.18888 21.713 8.47589 23 10.0625 23Z" fill="white"/>
</svg>
