<svg width="20" height="17" viewBox="0 0 20 17" fill="none" xmlns="http://www.w3.org/2000/svg">
<path d="M0.693878 3.12245H18.7347C19.1179 3.12245 19.4286 2.81181 19.4286 2.42857V0.693878C19.4286 0.31064 19.1179 0 18.7347 0H0.693878C0.31064 0 0 0.31064 0 0.693878V2.42857C0 2.81181 0.31064 3.12245 0.693878 3.12245ZM0.693878 10.0612H18.7347C19.1179 10.0612 19.4286 9.75058 19.4286 9.36735V7.63265C19.4286 7.24942 19.1179 6.93878 18.7347 6.93878H0.693878C0.31064 6.93878 0 7.24942 0 7.63265V9.36735C0 9.75058 0.31064 10.0612 0.693878 10.0612ZM0.693878 17H18.7347C19.1179 17 19.4286 16.6894 19.4286 16.3061V14.5714C19.4286 14.1882 19.1179 13.8776 18.7347 13.8776H0.693878C0.31064 13.8776 0 14.1882 0 14.5714V16.3061C0 16.6894 0.31064 17 0.693878 17Z" fill="white"/>
</svg>
