<svg width="181" height="203" viewBox="0 0 181 203" fill="none" xmlns="http://www.w3.org/2000/svg">
<g clip-path="url(#clip0_101_56)">
<path d="M101.148 48.2404H100.033V17.6848C100.033 12.9945 98.1711 8.4963 94.857 5.17976C91.5429 1.86322 87.048 5.91823e-06 82.3611 0H17.6719C15.3512 -5.86071e-06 13.0532 0.457418 10.9092 1.34616C8.76513 2.23489 6.81699 3.53754 5.176 5.17971C3.53501 6.82189 2.23331 8.77144 1.34521 10.9171C0.457107 13.0627 5.12444e-06 15.3623 0 17.6847V185.315C-2.19618e-06 187.638 0.457088 189.937 1.34518 192.083C2.23328 194.229 3.53498 196.178 5.17597 197.82C6.81696 199.462 8.76509 200.765 10.9091 201.654C13.0532 202.543 15.3512 203 17.6719 203H82.361C87.0479 203 91.5428 201.137 94.8569 197.82C98.171 194.504 100.033 190.006 100.033 185.315V69.9904H101.148V48.2404Z" fill="#E6E6E6"/>
<path d="M83.074 4.60098H74.63C75.0183 5.55371 75.1665 6.58738 75.0616 7.61095C74.9567 8.63451 74.6018 9.61654 74.0283 10.4705C73.4548 11.3245 72.6802 12.0243 71.7728 12.5081C70.8654 12.992 69.853 13.2451 68.8249 13.2452H31.7653C30.7371 13.2451 29.7247 12.992 28.8173 12.5082C27.9099 12.0243 27.1353 11.3245 26.5618 10.4705C25.9883 9.61654 25.6335 8.6345 25.5285 7.61093C25.4236 6.58736 25.5719 5.55368 25.9602 4.60095H18.0734C14.5733 4.60095 11.2165 5.99237 8.74159 8.46912C6.26664 10.9459 4.87623 14.3051 4.87622 17.8077V185.192C4.87622 188.695 6.26663 192.054 8.74158 194.531C11.2165 197.008 14.5733 198.399 18.0734 198.399H83.074C84.8071 198.399 86.5232 198.057 88.1244 197.394C89.7255 196.73 91.1804 195.757 92.4059 194.531C93.6313 193.305 94.6034 191.849 95.2666 190.246C95.9299 188.644 96.2712 186.927 96.2712 185.192V17.8077C96.2712 16.0734 95.9299 14.356 95.2666 12.7537C94.6034 11.1514 93.6313 9.6955 92.4059 8.46914C91.1804 7.24277 89.7255 6.26997 88.1244 5.60627C86.5232 4.94257 84.8071 4.60097 83.074 4.60098Z" fill="white"/>
<path d="M90.9076 136.068H12.9699C12.5872 136.067 12.2204 135.915 11.9498 135.644C11.6793 135.374 11.5271 135.006 11.5266 134.624V115.277C11.5271 114.894 11.6793 114.527 11.9498 114.256C12.2204 113.985 12.5872 113.833 12.9699 113.832H90.9076C91.2902 113.833 91.6571 113.985 91.9277 114.256C92.1982 114.527 92.3504 114.894 92.3509 115.277V134.624C92.3503 135.007 92.1981 135.374 91.9275 135.644C91.657 135.915 91.2902 136.067 90.9076 136.068ZM12.9699 114.41C12.7403 114.41 12.5201 114.502 12.3578 114.664C12.1954 114.826 12.1041 115.047 12.1039 115.277V134.624C12.1041 134.854 12.1954 135.074 12.3578 135.236C12.5201 135.399 12.7403 135.49 12.9699 135.49H90.9076C91.1372 135.49 91.3574 135.399 91.5197 135.236C91.6821 135.074 91.7734 134.854 91.7736 134.624V115.277C91.7734 115.047 91.6821 114.826 91.5197 114.664C91.3574 114.502 91.1372 114.41 90.9076 114.41H12.9699Z" fill="#E6E6E6"/>
<path d="M23.0726 131.016C26.4205 131.016 29.1344 128.3 29.1344 124.95C29.1344 121.6 26.4205 118.884 23.0726 118.884C19.7248 118.884 17.0109 121.6 17.0109 124.95C17.0109 128.3 19.7248 131.016 23.0726 131.016Z" fill="#E6E6E6"/>
<path d="M37.0727 120.906C36.8077 120.91 36.555 121.019 36.3691 121.208C36.1833 121.397 36.0791 121.652 36.0791 121.917C36.0791 122.182 36.1833 122.437 36.3691 122.626C36.555 122.815 36.8077 122.924 37.0727 122.928H84.7012C84.9692 122.933 85.2282 122.832 85.4213 122.646C85.6144 122.46 85.7258 122.205 85.7309 121.937C85.7361 121.668 85.6346 121.409 85.4488 121.216C85.263 121.023 85.0082 120.911 84.7402 120.906L84.7344 120.906C84.7234 120.906 84.7123 120.906 84.7013 120.906H37.0727Z" fill="#E6E6E6"/>
<path d="M37.0727 126.972C36.8077 126.977 36.555 127.085 36.3691 127.274C36.1833 127.463 36.0791 127.718 36.0791 127.983C36.0791 128.248 36.1833 128.503 36.3691 128.692C36.555 128.881 36.8077 128.99 37.0727 128.994H84.7012C84.9687 128.998 85.2268 128.895 85.4188 128.709C85.6108 128.522 85.7211 128.267 85.7255 128C85.7299 127.732 85.628 127.474 85.4422 127.281C85.2564 127.088 85.0019 126.977 84.7344 126.972C84.7234 126.972 84.7123 126.972 84.7012 126.972H37.0727Z" fill="#E6E6E6"/>
<path d="M90.9076 168.421H12.9699C12.5872 168.421 12.2204 168.268 11.9498 167.998C11.6793 167.727 11.5271 167.36 11.5266 166.977V147.63C11.5271 147.247 11.6793 146.88 11.9498 146.609C12.2204 146.338 12.5872 146.186 12.9699 146.186H90.9076C91.2902 146.186 91.6571 146.338 91.9277 146.609C92.1982 146.88 92.3504 147.247 92.3509 147.63V166.977C92.3503 167.36 92.1981 167.727 91.9275 167.998C91.657 168.268 91.2902 168.421 90.9076 168.421ZM12.9699 146.763C12.7403 146.763 12.5201 146.855 12.3578 147.017C12.1954 147.18 12.1041 147.4 12.1039 147.63V166.977C12.1041 167.207 12.1954 167.427 12.3578 167.59C12.5201 167.752 12.7403 167.843 12.9699 167.844H90.9076C91.1372 167.843 91.3574 167.752 91.5197 167.59C91.6821 167.427 91.7734 167.207 91.7736 166.977V147.63C91.7734 147.4 91.6821 147.18 91.5197 147.017C91.3574 146.855 91.1372 146.763 90.9076 146.763H12.9699Z" fill="#E6E6E6"/>
<path d="M23.0726 163.369C26.4205 163.369 29.1344 160.654 29.1344 157.303C29.1344 153.953 26.4205 151.237 23.0726 151.237C19.7248 151.237 17.0109 153.953 17.0109 157.303C17.0109 160.654 19.7248 163.369 23.0726 163.369Z" fill="#E6E6E6"/>
<path d="M37.0727 153.259C36.8077 153.264 36.555 153.372 36.3691 153.561C36.1833 153.75 36.0791 154.005 36.0791 154.27C36.0791 154.536 36.1833 154.79 36.3691 154.979C36.555 155.168 36.8077 155.277 37.0727 155.281H84.7012C84.9687 155.285 85.2268 155.182 85.4188 154.996C85.6108 154.81 85.7211 154.555 85.7255 154.287C85.7299 154.019 85.628 153.761 85.4422 153.568C85.2564 153.375 85.0019 153.264 84.7344 153.259C84.7234 153.259 84.7123 153.259 84.7012 153.259H37.0727Z" fill="#E6E6E6"/>
<path d="M37.0727 159.325C36.8077 159.33 36.555 159.438 36.3691 159.627C36.1833 159.817 36.0791 160.071 36.0791 160.336C36.0791 160.602 36.1833 160.856 36.3691 161.045C36.555 161.235 36.8077 161.343 37.0727 161.347H84.7012C84.9687 161.351 85.2268 161.249 85.4188 161.062C85.6108 160.876 85.7211 160.621 85.7255 160.353C85.7299 160.085 85.628 159.827 85.4422 159.634C85.2564 159.442 85.0019 159.331 84.7344 159.325C84.7234 159.325 84.7123 159.325 84.7012 159.325H37.0727Z" fill="#E6E6E6"/>
<path d="M50.2986 95.9199C43.0288 95.923 36.0555 93.0358 30.9128 87.8937C25.7701 82.7515 22.8793 75.7756 22.8762 68.5004V68.4776C22.8762 68.4201 22.8762 68.3596 22.8796 68.3021C22.9632 53.2736 35.264 41.0349 50.2986 41.0349C57.5715 41.0341 64.5468 43.9245 69.6901 49.0704C74.8334 54.2162 77.7233 61.196 77.7241 68.4742C77.725 75.7523 74.8366 82.7327 69.6945 87.8798C64.5524 93.0268 57.5777 95.9188 50.3049 95.9196H50.2986V95.9199ZM50.2986 41.612C43.2112 41.6279 36.4164 44.4419 31.3905 49.4427C26.3646 54.4435 23.5136 61.2271 23.4571 68.3194C23.454 68.3808 23.454 68.431 23.454 68.4767C23.4534 73.7907 25.0274 78.9856 27.977 83.4044C30.9266 87.8232 35.1193 91.2674 40.025 93.3016C44.9306 95.3358 50.3289 95.8686 55.5371 94.8325C60.7454 93.7965 65.5296 91.2381 69.2849 87.481C73.0402 83.7239 75.5979 78.9368 76.6345 73.7251C77.6711 68.5133 77.1401 63.111 75.1086 58.2012C73.0771 53.2915 69.6364 49.0948 65.2215 46.142C60.8067 43.1891 55.616 41.6127 50.3059 41.612H50.2986Z" fill="#E6E6E6"/>
<path d="M87.8313 129.101C93.9888 129.101 98.9804 124.106 98.9804 117.944C98.9804 111.782 93.9888 106.786 87.8313 106.786C81.6738 106.786 76.6821 111.782 76.6821 117.944C76.6821 124.106 81.6738 129.101 87.8313 129.101Z" fill="white"/>
<path d="M83.959 122.963C83.9398 122.963 83.9207 122.963 83.9015 122.963H77.9089C77.1485 122.951 76.4233 122.64 75.8897 122.098C75.3562 121.556 75.0569 120.825 75.0566 120.064C75.0563 119.303 75.355 118.573 75.8881 118.03C76.4212 117.487 77.1462 117.176 77.9066 117.163H83.9043C83.9337 117.163 83.9656 117.163 83.9973 117.163C84.7623 117.174 85.4921 117.487 86.0275 118.033C86.5629 118.58 86.8605 119.317 86.8555 120.082C86.8504 120.848 86.5431 121.581 86.0005 122.12C85.4578 122.66 84.724 122.963 83.959 122.963Z" fill="#6C63FF"/>
<path d="M181 202.321H90.6829V202.946H181V202.321Z" fill="#3F3D56"/>
<path d="M96.2476 149.432C96.1767 149.322 96.1178 149.204 96.0721 149.081L94.6329 145.224C94.4654 144.774 94.4833 144.275 94.6827 143.838C94.882 143.401 95.2466 143.06 95.6963 142.892L127.818 130.889C128.268 130.721 128.766 130.739 129.203 130.938C129.64 131.138 129.98 131.503 130.149 131.953L131.588 135.81C131.671 136.033 131.709 136.27 131.701 136.508C131.693 136.746 131.637 136.98 131.539 137.196C131.44 137.413 131.3 137.608 131.125 137.77C130.951 137.933 130.747 138.059 130.524 138.142L98.4032 150.145C98.0164 150.29 97.592 150.298 97.2001 150.168C96.8082 150.038 96.4722 149.779 96.2476 149.432Z" fill="#6C63FF"/>
<path d="M127.715 129.892L114.653 135.104C114.242 135.228 113.894 135.506 113.681 135.88C113.469 136.254 113.408 136.695 113.512 137.113L115.028 143.186C115.088 143.426 115.201 143.65 115.357 143.841C115.514 144.033 115.711 144.187 115.934 144.293C116.157 144.399 116.401 144.454 116.648 144.454C116.895 144.455 117.14 144.4 117.363 144.295L130.461 138.125C130.876 137.97 131.212 137.656 131.397 137.252C131.581 136.849 131.598 136.389 131.444 135.973L129.869 130.875C129.713 130.459 129.399 130.122 128.996 129.938C128.592 129.753 128.131 129.737 127.715 129.892Z" fill="#2F2E41"/>
<path d="M151.62 167.732C151.21 167.779 150.796 167.685 150.446 167.465C150.097 167.245 149.833 166.912 149.699 166.522L138.518 134.085C138.44 133.86 138.408 133.622 138.422 133.384C138.436 133.146 138.497 132.914 138.602 132.7C138.706 132.486 138.851 132.294 139.029 132.136C139.207 131.979 139.415 131.857 139.64 131.78L143.529 130.437C143.983 130.281 144.481 130.311 144.912 130.522C145.344 130.732 145.675 131.106 145.832 131.56L157.013 163.997C157.169 164.451 157.139 164.949 156.928 165.382C156.718 165.814 156.345 166.145 155.891 166.302L152.002 167.644C151.878 167.687 151.75 167.717 151.62 167.732Z" fill="#6C63FF"/>
<path d="M146.665 131.005L150.957 144.406C151.123 144.803 151.13 145.248 150.977 145.65C150.824 146.052 150.522 146.38 150.134 146.565L144.487 149.258C144.264 149.365 144.02 149.42 143.773 149.421C143.526 149.422 143.282 149.368 143.058 149.263C142.834 149.158 142.636 149.005 142.479 148.814C142.321 148.624 142.208 148.401 142.147 148.161L138.571 134.123C138.427 133.703 138.455 133.244 138.649 132.845C138.843 132.446 139.187 132.141 139.605 131.995L144.537 129.968C144.957 129.823 145.417 129.851 145.816 130.046C146.215 130.24 146.52 130.585 146.665 131.005Z" fill="#2F2E41"/>
<path d="M133.672 202.505H129.559C129.078 202.504 128.618 202.313 128.278 201.973C127.938 201.633 127.747 201.173 127.747 200.692V166.379C127.747 165.899 127.938 165.438 128.278 165.098C128.618 164.758 129.078 164.567 129.559 164.566H133.672C134.153 164.567 134.613 164.758 134.953 165.098C135.293 165.438 135.484 165.899 135.484 166.379V200.692C135.484 201.173 135.293 201.633 134.953 201.973C134.613 202.313 134.153 202.504 133.672 202.505Z" fill="#2F2E41"/>
<path d="M141.809 202.505H137.695C137.215 202.504 136.754 202.313 136.415 201.973C136.075 201.633 135.884 201.173 135.884 200.692V166.379C135.884 165.899 136.075 165.438 136.415 165.098C136.754 164.758 137.215 164.567 137.695 164.566H141.809C142.29 164.567 142.75 164.758 143.09 165.098C143.429 165.438 143.62 165.899 143.621 166.379V200.692C143.62 201.173 143.429 201.633 143.09 201.973C142.75 202.313 142.29 202.504 141.809 202.505Z" fill="#2F2E41"/>
<path d="M145.199 170.413H126.507C125.99 170.413 125.494 170.207 125.128 169.841C124.762 169.475 124.557 168.978 124.556 168.461V138.073C124.556 135.074 125.746 132.199 127.865 130.079C129.984 127.958 132.857 126.767 135.853 126.767C138.85 126.767 141.723 127.958 143.842 130.079C145.96 132.199 147.151 135.074 147.151 138.073V168.461C147.15 168.978 146.944 169.475 146.578 169.841C146.213 170.207 145.717 170.413 145.199 170.413Z" fill="#CCCCCC"/>
<path d="M148.013 177.847H138.536V124.249L138.712 124.297C141.381 125.03 143.736 126.619 145.416 128.82C147.096 131.021 148.009 133.713 148.013 136.482V177.847Z" fill="#2F2E41"/>
<path d="M132.4 177.847H122.923V136.482C122.928 133.713 123.84 131.021 125.52 128.82C127.2 126.619 129.555 125.03 132.224 124.297L132.4 124.249V177.847Z" fill="#2F2E41"/>
<path d="M135.712 120.481C143.951 120.481 150.629 113.798 150.629 105.553C150.629 97.3087 143.951 90.6251 135.712 90.6251C127.473 90.6251 120.795 97.3087 120.795 105.553C120.795 113.798 127.473 120.481 135.712 120.481Z" fill="#6C63FF"/>
<path d="M152.577 102.116C152.577 102.116 153.413 78.9651 142.543 86.4963C142.543 86.4963 136.271 65.437 120.941 96.9562L116.482 101.419C116.482 101.419 136.55 98.6298 155.225 107.277L152.577 102.116Z" fill="#2F2E41"/>
<path d="M135.94 112.946C135.018 112.921 133.871 112.889 132.988 112.243C132.725 112.043 132.509 111.787 132.354 111.495C132.2 111.202 132.112 110.879 132.096 110.549C132.08 110.314 132.118 110.079 132.208 109.861C132.298 109.644 132.437 109.45 132.614 109.296C133.076 108.905 133.75 108.814 134.476 109.028L133.723 103.525L134.276 103.45L135.16 109.918L134.699 109.706C134.164 109.461 133.43 109.336 132.974 109.722C132.862 109.823 132.775 109.948 132.719 110.088C132.663 110.228 132.641 110.379 132.653 110.529C132.666 110.775 132.733 111.015 132.847 111.233C132.962 111.451 133.122 111.642 133.317 111.792C134.004 112.295 134.918 112.36 135.955 112.389L135.94 112.946Z" fill="#2F2E41"/>
<path d="M130.992 104H127.99V104.558H130.992V104Z" fill="#2F2E41"/>
<path d="M140.469 104H137.467V104.558H140.469V104Z" fill="#2F2E41"/>
<path d="M102.452 150.855C102.05 151.042 101.59 151.061 101.173 150.909C100.757 150.756 100.418 150.444 100.231 150.041L90.6123 129.293C90.4257 128.891 90.4065 128.43 90.559 128.014C90.7116 127.597 91.0232 127.258 91.4256 127.071C91.8279 126.884 92.2878 126.865 92.7043 127.018C93.1208 127.17 93.4596 127.482 93.6464 127.885L103.266 148.633C103.452 149.035 103.471 149.496 103.319 149.912C103.166 150.329 102.855 150.668 102.452 150.855Z" fill="#3F3D56"/>
<path d="M92.5696 128.53C92.2739 128.53 91.9903 128.412 91.7812 128.203C91.5721 127.994 91.4546 127.71 91.4546 127.414V113.202H77.5182C77.2225 113.202 76.939 113.084 76.7299 112.875C76.5208 112.666 76.4033 112.382 76.4033 112.086C76.4033 111.79 76.5208 111.506 76.7299 111.297C76.939 111.088 77.2225 110.97 77.5182 110.97H92.5696C92.8653 110.97 93.1488 111.088 93.3579 111.297C93.567 111.506 93.6845 111.79 93.6845 112.086V127.414C93.6845 127.71 93.567 127.994 93.3579 128.203C93.1488 128.412 92.8653 128.53 92.5696 128.53Z" fill="#6C63FF"/>
<path d="M92.8332 130.107C90.4328 131.222 87.7562 131.599 85.1416 131.191C82.5271 130.783 80.0922 129.608 78.1447 127.816C76.1973 126.023 74.8248 123.692 74.2008 121.119C73.5768 118.546 73.7294 115.845 74.6392 113.358C75.549 110.872 77.1752 108.711 79.3122 107.149C81.4491 105.588 84.0009 104.695 86.6447 104.585C89.2885 104.474 91.9056 105.151 94.1652 106.529C96.4247 107.907 98.2251 109.925 99.3388 112.327C100.828 115.549 100.979 119.23 99.7598 122.563C98.5402 125.897 96.0491 128.61 92.8332 130.107ZM82.9794 108.853C81.1791 109.689 79.667 111.04 78.6341 112.736C77.6013 114.432 77.0942 116.396 77.177 118.381C77.2597 120.365 77.9285 122.28 79.0989 123.884C80.2693 125.488 81.8887 126.708 83.7523 127.391C85.6159 128.074 87.64 128.189 89.5686 127.72C91.4972 127.252 93.2437 126.222 94.5873 124.76C95.9309 123.299 96.8112 121.471 97.1169 119.509C97.4226 117.546 97.14 115.537 96.3047 113.736C95.1824 111.322 93.1491 109.452 90.6509 108.537C88.1528 107.622 85.3939 107.735 82.9794 108.853Z" fill="#3F3D56"/>
</g>
<defs>
<clipPath id="clip0_101_56">
<rect width="181" height="203" fill="white"/>
</clipPath>
</defs>
</svg>
