<svg width="246" height="197" viewBox="0 0 246 197" fill="none" xmlns="http://www.w3.org/2000/svg">
<circle cx="121.181" cy="106.86" r="49" fill="#6C63FF"/>
<g filter="url(#filter0_d_95_197)">
<path d="M104.181 110.36L116.231 120.86L138.181 92.8596" stroke="white" stroke-width="5" stroke-linecap="round" stroke-linejoin="round"/>
</g>
<rect x="126.364" y="29.1242" width="4.90082" height="5.71762" rx="1" transform="rotate(-10.9119 126.364 29.1242)" fill="url(#paint0_linear_95_197)"/>
<rect x="203.363" y="151.306" width="4.90082" height="5.71762" rx="1" transform="rotate(29.09 203.363 151.306)" fill="url(#paint1_linear_95_197)"/>
<rect x="65.8157" y="189.19" width="4.90082" height="5.71762" rx="1" transform="rotate(29.09 65.8157 189.19)" fill="url(#paint2_linear_95_197)"/>
<rect x="93.7146" y="45.1853" width="2.2612" height="2.63806" rx="1" fill="url(#paint3_linear_95_197)"/>
<rect x="199.983" y="26.5199" width="4.16433" height="4.85839" rx="1" transform="rotate(27 199.983 26.5199)" fill="url(#paint4_linear_95_197)"/>
<rect x="193.545" y="47.8539" width="2.2612" height="2.63806" rx="1" fill="url(#paint5_linear_95_197)"/>
<rect x="186.872" y="146.959" width="2.2612" height="2.63806" rx="1" fill="url(#paint6_linear_95_197)"/>
<rect x="204.979" y="108.842" width="2.2612" height="2.63806" rx="1" fill="url(#paint7_linear_95_197)"/>
<rect x="230.709" y="74.5364" width="2.2612" height="2.63806" rx="1" fill="url(#paint8_linear_95_197)"/>
<rect x="209.743" y="135.524" width="2.2612" height="2.63806" rx="1" fill="url(#paint9_linear_95_197)"/>
<rect x="163.181" y="185.86" width="2.2612" height="2.63806" rx="1" fill="url(#paint10_linear_95_197)"/>
<rect x="67.6404" y="35.6752" width="3.22878" height="3.76691" rx="1" transform="rotate(-22.65 67.6404 35.6752)" fill="url(#paint11_linear_95_197)"/>
<rect x="6.31006" y="170.261" width="3.22878" height="3.76691" rx="1" transform="rotate(17.3473 6.31006 170.261)" fill="url(#paint12_linear_95_197)"/>
<rect x="57.7004" y="58.3362" width="1.22278" height="1.42657" rx="0.611389" transform="rotate(17.3473 57.7004 58.3362)" fill="url(#paint13_linear_95_197)"/>
<rect x="182.534" y="65.9595" width="1.22278" height="1.42657" rx="0.611389" transform="rotate(17.3473 182.534 65.9595)" fill="url(#paint14_linear_95_197)"/>
<rect x="233.039" y="87.8771" width="1.22278" height="1.42657" rx="0.611389" transform="rotate(17.3473 233.039 87.8771)" fill="url(#paint15_linear_95_197)"/>
<rect x="67.8157" y="147.308" width="1.22278" height="1.42657" rx="0.611389" transform="rotate(17.3473 67.8157 147.308)" fill="url(#paint16_linear_95_197)"/>
<rect x="23.3943" y="13.5482" width="1.22278" height="1.42657" rx="0.611389" transform="rotate(17.3473 23.3943 13.5482)" fill="url(#paint17_linear_95_197)"/>
<rect x="32.3516" y="105.712" width="2.32195" height="2.70894" rx="1" transform="rotate(17.3473 32.3516 105.712)" fill="url(#paint18_linear_95_197)"/>
<rect x="35.3479" y="140.177" width="2.32195" height="2.70894" rx="1" transform="rotate(17.3473 35.3479 140.177)" fill="url(#paint19_linear_95_197)"/>
<rect x="103.813" y="173.411" width="2.32195" height="2.70894" rx="1" transform="rotate(17.3473 103.813 173.411)" fill="url(#paint20_linear_95_197)"/>
<rect x="143.207" y="12.5954" width="3.22878" height="3.76691" rx="1" transform="rotate(17.3473 143.207 12.5954)" fill="url(#paint21_linear_95_197)"/>
<rect x="44.4253" y="44.9947" width="4.15966" height="4.85293" rx="1" transform="rotate(17.3473 44.4253 44.9947)" fill="url(#paint22_linear_95_197)"/>
<rect x="120.548" y="4.37958" width="4.15966" height="4.85293" rx="1" transform="rotate(-92.65 120.548 4.37958)" fill="url(#paint23_linear_95_197)"/>
<rect x="9.82324" y="85.5745" width="6.4143" height="7.48335" rx="1" transform="rotate(135.279 9.82324 85.5745)" fill="url(#paint24_linear_95_197)"/>
<rect x="237.378" y="178.699" width="6.4143" height="7.48335" rx="1" transform="rotate(-11.7361 237.378 178.699)" fill="url(#paint25_linear_95_197)"/>
<defs>
<filter id="filter0_d_95_197" x="98.6807" y="90.3595" width="45" height="40.0001" filterUnits="userSpaceOnUse" color-interpolation-filters="sRGB">
<feFlood flood-opacity="0" result="BackgroundImageFix"/>
<feColorMatrix in="SourceAlpha" type="matrix" values="0 0 0 0 0 0 0 0 0 0 0 0 0 0 0 0 0 0 127 0" result="hardAlpha"/>
<feOffset dy="4"/>
<feGaussianBlur stdDeviation="1.5"/>
<feColorMatrix type="matrix" values="0 0 0 0 0 0 0 0 0 0 0 0 0 0 0 0 0 0 0.15 0"/>
<feBlend mode="normal" in2="BackgroundImageFix" result="effect1_dropShadow_95_197"/>
<feBlend mode="normal" in="SourceGraphic" in2="effect1_dropShadow_95_197" result="shape"/>
</filter>
<linearGradient id="paint0_linear_95_197" x1="128.815" y1="29.1242" x2="128.815" y2="34.8418" gradientUnits="userSpaceOnUse">
<stop stop-color="#4157FF"/>
<stop offset="1" stop-color="#A3ADFF"/>
</linearGradient>
<linearGradient id="paint1_linear_95_197" x1="205.813" y1="151.306" x2="205.813" y2="157.023" gradientUnits="userSpaceOnUse">
<stop stop-color="#4157FF"/>
<stop offset="1" stop-color="#A3ADFF"/>
</linearGradient>
<linearGradient id="paint2_linear_95_197" x1="68.2661" y1="189.19" x2="68.2661" y2="194.908" gradientUnits="userSpaceOnUse">
<stop stop-color="#4157FF"/>
<stop offset="1" stop-color="#A3ADFF"/>
</linearGradient>
<linearGradient id="paint3_linear_95_197" x1="94.8452" y1="45.1853" x2="94.8452" y2="47.8234" gradientUnits="userSpaceOnUse">
<stop stop-color="#4157FF"/>
<stop offset="1" stop-color="#A3ADFF"/>
</linearGradient>
<linearGradient id="paint4_linear_95_197" x1="202.065" y1="26.5199" x2="202.065" y2="31.3783" gradientUnits="userSpaceOnUse">
<stop stop-color="#4157FF"/>
<stop offset="1" stop-color="#A3ADFF"/>
</linearGradient>
<linearGradient id="paint5_linear_95_197" x1="194.675" y1="47.8539" x2="194.675" y2="50.492" gradientUnits="userSpaceOnUse">
<stop stop-color="#4157FF"/>
<stop offset="1" stop-color="#A3ADFF"/>
</linearGradient>
<linearGradient id="paint6_linear_95_197" x1="188.003" y1="146.959" x2="188.003" y2="149.597" gradientUnits="userSpaceOnUse">
<stop stop-color="#4157FF"/>
<stop offset="1" stop-color="#A3ADFF"/>
</linearGradient>
<linearGradient id="paint7_linear_95_197" x1="206.11" y1="108.842" x2="206.11" y2="111.48" gradientUnits="userSpaceOnUse">
<stop stop-color="#4157FF"/>
<stop offset="1" stop-color="#A3ADFF"/>
</linearGradient>
<linearGradient id="paint8_linear_95_197" x1="231.84" y1="74.5364" x2="231.84" y2="77.1744" gradientUnits="userSpaceOnUse">
<stop stop-color="#4157FF"/>
<stop offset="1" stop-color="#A3ADFF"/>
</linearGradient>
<linearGradient id="paint9_linear_95_197" x1="210.874" y1="135.524" x2="210.874" y2="138.162" gradientUnits="userSpaceOnUse">
<stop stop-color="#4157FF"/>
<stop offset="1" stop-color="#A3ADFF"/>
</linearGradient>
<linearGradient id="paint10_linear_95_197" x1="164.311" y1="185.86" x2="164.311" y2="188.498" gradientUnits="userSpaceOnUse">
<stop stop-color="#4157FF"/>
<stop offset="1" stop-color="#A3ADFF"/>
</linearGradient>
<linearGradient id="paint11_linear_95_197" x1="69.2548" y1="35.6752" x2="69.2548" y2="39.4421" gradientUnits="userSpaceOnUse">
<stop stop-color="#4157FF"/>
<stop offset="1" stop-color="#A3ADFF"/>
</linearGradient>
<linearGradient id="paint12_linear_95_197" x1="7.92445" y1="170.261" x2="7.92445" y2="174.028" gradientUnits="userSpaceOnUse">
<stop stop-color="#4157FF"/>
<stop offset="1" stop-color="#A3ADFF"/>
</linearGradient>
<linearGradient id="paint13_linear_95_197" x1="58.3118" y1="58.3362" x2="58.3118" y2="59.7628" gradientUnits="userSpaceOnUse">
<stop stop-color="#4157FF"/>
<stop offset="1" stop-color="#A3ADFF"/>
</linearGradient>
<linearGradient id="paint14_linear_95_197" x1="183.146" y1="65.9595" x2="183.146" y2="67.3861" gradientUnits="userSpaceOnUse">
<stop stop-color="#4157FF"/>
<stop offset="1" stop-color="#A3ADFF"/>
</linearGradient>
<linearGradient id="paint15_linear_95_197" x1="233.65" y1="87.8771" x2="233.65" y2="89.3036" gradientUnits="userSpaceOnUse">
<stop stop-color="#4157FF"/>
<stop offset="1" stop-color="#A3ADFF"/>
</linearGradient>
<linearGradient id="paint16_linear_95_197" x1="68.4271" y1="147.308" x2="68.4271" y2="148.735" gradientUnits="userSpaceOnUse">
<stop stop-color="#4157FF"/>
<stop offset="1" stop-color="#A3ADFF"/>
</linearGradient>
<linearGradient id="paint17_linear_95_197" x1="24.0057" y1="13.5482" x2="24.0057" y2="14.9747" gradientUnits="userSpaceOnUse">
<stop stop-color="#4157FF"/>
<stop offset="1" stop-color="#A3ADFF"/>
</linearGradient>
<linearGradient id="paint18_linear_95_197" x1="33.5125" y1="105.712" x2="33.5125" y2="108.421" gradientUnits="userSpaceOnUse">
<stop stop-color="#4157FF"/>
<stop offset="1" stop-color="#A3ADFF"/>
</linearGradient>
<linearGradient id="paint19_linear_95_197" x1="36.5089" y1="140.177" x2="36.5089" y2="142.886" gradientUnits="userSpaceOnUse">
<stop stop-color="#4157FF"/>
<stop offset="1" stop-color="#A3ADFF"/>
</linearGradient>
<linearGradient id="paint20_linear_95_197" x1="104.974" y1="173.411" x2="104.974" y2="176.12" gradientUnits="userSpaceOnUse">
<stop stop-color="#4157FF"/>
<stop offset="1" stop-color="#A3ADFF"/>
</linearGradient>
<linearGradient id="paint21_linear_95_197" x1="144.821" y1="12.5954" x2="144.821" y2="16.3623" gradientUnits="userSpaceOnUse">
<stop stop-color="#4157FF"/>
<stop offset="1" stop-color="#A3ADFF"/>
</linearGradient>
<linearGradient id="paint22_linear_95_197" x1="46.5051" y1="44.9947" x2="46.5051" y2="49.8477" gradientUnits="userSpaceOnUse">
<stop stop-color="#4157FF"/>
<stop offset="1" stop-color="#A3ADFF"/>
</linearGradient>
<linearGradient id="paint23_linear_95_197" x1="122.628" y1="4.37958" x2="122.628" y2="9.23251" gradientUnits="userSpaceOnUse">
<stop stop-color="#4157FF"/>
<stop offset="1" stop-color="#A3ADFF"/>
</linearGradient>
<linearGradient id="paint24_linear_95_197" x1="13.0304" y1="85.5745" x2="13.0304" y2="93.0579" gradientUnits="userSpaceOnUse">
<stop stop-color="#4157FF"/>
<stop offset="1" stop-color="#A3ADFF"/>
</linearGradient>
<linearGradient id="paint25_linear_95_197" x1="240.585" y1="178.699" x2="240.585" y2="186.182" gradientUnits="userSpaceOnUse">
<stop stop-color="#4157FF"/>
<stop offset="1" stop-color="#A3ADFF"/>
</linearGradient>
</defs>
</svg>
