<svg width="161" height="145" viewBox="0 0 161 145" fill="none" xmlns="http://www.w3.org/2000/svg">
<g clip-path="url(#clip0_380_406)">
<path d="M159.588 55.4509C159.53 55.451 159.474 55.4332 159.426 55.4001L81.3106 0.819568C81.0728 0.654242 80.7904 0.565889 80.5011 0.566384C80.2118 0.566879 79.9297 0.656197 79.6925 0.822335L2.13944 55.3996C2.0781 55.4428 2.00218 55.4597 1.92838 55.4467C1.85458 55.4337 1.78895 55.3918 1.74593 55.3303C1.7029 55.2688 1.686 55.1926 1.69896 55.1186C1.71191 55.0445 1.75365 54.9787 1.81499 54.9355L79.3681 0.35824C79.7002 0.125682 80.0952 0.000670377 80.5002 2.68862e-06C80.9051 -0.000665 81.3006 0.123042 81.6334 0.354504L159.749 54.9349C159.798 54.9694 159.836 55.0188 159.855 55.076C159.874 55.1331 159.875 55.1949 159.857 55.2525C159.839 55.31 159.803 55.3603 159.755 55.396C159.706 55.4317 159.648 55.451 159.588 55.4509Z" fill="#3F3D56"/>
<path d="M6.57104 57.3856L80.5779 2.35747L155.146 61.3012L84.3911 103.384L45.9771 94.5987L6.57104 57.3856Z" fill="#E6E6E6"/>
<path d="M49.2195 129.376H12.6583C12.4338 129.376 12.2115 129.332 12.004 129.246C11.7965 129.16 11.6079 129.034 11.4491 128.875C11.2902 128.716 11.1642 128.527 11.0782 128.319C10.9923 128.111 10.948 127.888 10.948 127.662C10.948 127.437 10.9923 127.214 11.0782 127.006C11.1642 126.798 11.2902 126.609 11.4491 126.45C11.6079 126.291 11.7965 126.164 12.004 126.078C12.2115 125.992 12.4338 125.948 12.6583 125.949H49.2195C49.444 125.948 49.6664 125.992 49.8739 126.078C50.0814 126.164 50.2699 126.291 50.4288 126.45C50.5876 126.609 50.7136 126.798 50.7996 127.006C50.8856 127.214 50.9298 127.437 50.9298 127.662C50.9298 127.888 50.8856 128.111 50.7996 128.319C50.7136 128.527 50.5876 128.716 50.4288 128.875C50.2699 129.034 50.0814 129.16 49.8739 129.246C49.6664 129.332 49.444 129.376 49.2195 129.376Z" fill="#6C63FF"/>
<path d="M25.7757 122.008H12.6583C12.4338 122.008 12.2115 121.964 12.004 121.878C11.7965 121.792 11.6079 121.666 11.4491 121.507C11.2902 121.348 11.1642 121.159 11.0782 120.951C10.9923 120.743 10.948 120.52 10.948 120.294C10.948 120.069 10.9923 119.846 11.0782 119.638C11.1642 119.43 11.2902 119.241 11.4491 119.082C11.6079 118.923 11.7965 118.796 12.004 118.71C12.2115 118.624 12.4338 118.58 12.6583 118.581H25.7757C26.0002 118.58 26.2225 118.624 26.43 118.71C26.6375 118.796 26.8261 118.923 26.9849 119.082C27.1437 119.241 27.2698 119.43 27.3557 119.638C27.4417 119.846 27.486 120.069 27.486 120.294C27.486 120.52 27.4417 120.743 27.3557 120.951C27.2698 121.159 27.1437 121.348 26.9849 121.507C26.8261 121.666 26.6375 121.792 26.43 121.878C26.2225 121.964 26.0002 122.008 25.7757 122.008Z" fill="#6C63FF"/>
<path d="M81.6186 88.0357C81.3407 88.0359 81.0654 87.9818 80.8082 87.8764L35.1659 68.8759V9.40113C35.1665 8.87521 35.375 8.37101 35.7457 7.99913C36.1163 7.62725 36.6189 7.41806 37.1431 7.41745H124.704C125.229 7.41806 125.731 7.62725 126.102 7.99913C126.473 8.37101 126.681 8.87521 126.682 9.40113V68.9174L126.596 68.9542L82.4536 87.8671C82.1892 87.9785 81.9053 88.0359 81.6186 88.0357Z" fill="white"/>
<path d="M81.6186 88.1772C81.3223 88.1775 81.0287 88.1199 80.7544 88.0076L35.0247 68.9705V9.40113C35.0253 8.83764 35.2487 8.29742 35.6458 7.89897C36.043 7.50052 36.5814 7.2764 37.1431 7.27576H124.704C125.266 7.2764 125.805 7.50052 126.202 7.89897C126.599 8.29742 126.822 8.83764 126.823 9.40113V69.0109L82.509 87.9973C82.2271 88.1163 81.9244 88.1775 81.6186 88.1772ZM35.5896 68.5919L80.9698 87.4836C81.3931 87.6559 81.8671 87.653 82.2883 87.4757L126.258 68.6368V9.40113C126.258 8.98791 126.094 8.59176 125.802 8.29957C125.511 8.00738 125.116 7.84301 124.704 7.84252H37.1431C36.7312 7.84301 36.3364 8.00738 36.0451 8.29957C35.7539 8.59176 35.5901 8.98791 35.5896 9.40113L35.5896 68.5919Z" fill="#3F3D56"/>
<path d="M159.023 54.8842H158.966L126.54 68.7756L82.175 87.7821C82.0017 87.8553 81.8156 87.8934 81.6276 87.8944C81.4395 87.8954 81.2531 87.8592 81.079 87.7878L35.307 68.7359L2.08449 54.9068L2.03374 54.8842H1.97719C1.45299 54.8848 0.950417 55.0939 0.579747 55.4658C0.209077 55.8377 0.000581648 56.3419 0 56.8679V143.016C0.000582394 143.542 0.209078 144.046 0.579747 144.418C0.950416 144.79 1.45299 144.999 1.97719 145H159.023C159.547 144.999 160.05 144.79 160.42 144.418C160.791 144.046 160.999 143.542 161 143.016V56.8679C160.999 56.3419 160.791 55.8377 160.42 55.4658C160.05 55.0939 159.547 54.8848 159.023 54.8842ZM160.435 143.016C160.435 143.392 160.286 143.752 160.021 144.018C159.756 144.284 159.397 144.433 159.023 144.433H1.97719C1.60268 144.433 1.24355 144.284 0.978727 144.018C0.713905 143.752 0.565062 143.392 0.564912 143.016V56.8679C0.565424 56.5014 0.70709 56.1494 0.960289 55.8853C1.21349 55.6213 1.55862 55.4656 1.92354 55.4509L35.307 69.348L80.8616 88.312C81.3547 88.5133 81.9073 88.5103 82.3982 88.3035L126.54 69.3906L159.079 55.4509C159.444 55.4667 159.788 55.6228 160.04 55.8867C160.293 56.1506 160.434 56.502 160.435 56.8679V143.016Z" fill="#3F3D56"/>
<path d="M81.1624 71.1708C79.4774 71.174 77.8371 70.6273 76.4889 69.6133L76.4053 69.5503L58.8052 56.0308C57.9901 55.4043 57.306 54.6227 56.7919 53.7309C56.2779 52.8391 55.9439 51.8544 55.8092 50.8331C55.6744 49.8118 55.7415 48.7738 56.0066 47.7785C56.2717 46.7832 56.7295 45.8501 57.354 45.0323C57.9786 44.2145 58.7575 43.5282 59.6465 43.0124C60.5354 42.4967 61.5168 42.1616 62.5348 42.0265C63.5528 41.8913 64.5873 41.9586 65.5794 42.2245C66.5714 42.4904 67.5015 42.9498 68.3166 43.5764L79.7167 52.3464L106.657 17.0974C107.282 16.2798 108.061 15.5937 108.95 15.0783C109.839 14.5628 110.821 14.2282 111.839 14.0933C112.857 13.9585 113.891 14.0262 114.883 14.2925C115.875 14.5588 116.805 15.0185 117.62 15.6454L117.452 15.8736L117.624 15.6488C119.268 16.9162 120.343 18.7861 120.615 20.8481C120.886 22.9101 120.331 24.9959 119.071 26.6478L87.3833 68.1092C86.6504 69.0646 85.708 69.8378 84.6292 70.3688C83.5503 70.8997 82.364 71.1742 81.1624 71.1708Z" fill="#6C63FF"/>
</g>
<defs>
<clipPath id="clip0_380_406">
<rect width="161" height="145" fill="white"/>
</clipPath>
</defs>
</svg>
