<svg width="273" height="141" viewBox="0 0 273 141" fill="none" xmlns="http://www.w3.org/2000/svg">
<g clip-path="url(#clip0_380_26)">
<path d="M136.5 126.029C211.887 126.029 273 124.32 273 122.212C273 120.104 211.887 118.396 136.5 118.396C61.1131 118.396 0 120.104 0 122.212C0 124.32 61.1131 126.029 136.5 126.029Z" fill="#E6E6E6"/>
<path d="M209.245 80.8565C209.073 80.8588 208.9 80.8612 208.725 80.8612C208.551 80.8612 208.378 80.8588 208.206 80.8565C199.069 80.6488 192.446 74.9421 194.132 68.9545L198.242 54.3478L199.281 50.6519L217.697 50.9657L218.817 54.5814L223.222 68.8129C225.088 74.8335 218.465 80.6488 209.245 80.8565Z" fill="#3F3D56"/>
<path opacity="0.2" d="M218.817 54.5814C215.677 56.3756 212.114 57.2999 208.498 57.2588C204.881 57.2178 201.341 56.2128 198.242 54.3478L199.281 50.6519L217.697 50.9657L218.817 54.5814Z" fill="black"/>
<path d="M218.039 69.4391C218.835 66.4754 221.45 62.2 228.782 57.0451C241.571 48.0536 233.942 41.3118 233.611 41.0293C232.918 40.4368 233.02 39.7715 233.849 39.5442C234.331 39.4479 234.828 39.4557 235.306 39.567C235.785 39.6784 236.234 39.8906 236.624 40.1896C237.038 40.532 246.591 48.6865 232.16 58.8311C219.173 67.9623 221.934 73.9229 221.966 73.9801C222.314 74.6176 221.756 75.1276 220.718 75.1208C219.68 75.1139 218.557 74.592 218.207 73.9552C218.134 73.8205 217.298 72.1982 218.039 69.4391Z" fill="#3F3D56"/>
<path d="M200.226 82.9853C199.946 82.9853 199.67 82.9304 199.412 82.8236C199.155 82.7169 198.92 82.5604 198.723 82.3632C198.526 82.1659 198.369 81.9318 198.262 81.6741C198.156 81.4163 198.101 81.1401 198.101 80.8612V71.6568C198.101 71.0934 198.324 70.5532 198.723 70.1548C199.121 69.7565 199.662 69.5327 200.226 69.5327C200.789 69.5327 201.33 69.7565 201.728 70.1548C202.127 70.5532 202.35 71.0934 202.35 71.6568V80.8612C202.351 81.1401 202.296 81.4163 202.189 81.6741C202.082 81.9318 201.925 82.1659 201.728 82.3632C201.531 82.5604 201.297 82.7169 201.039 82.8236C200.781 82.9304 200.505 82.9853 200.226 82.9853Z" fill="#3F3D56"/>
<path d="M202.089 61.1336C201.972 61.387 201.807 61.615 201.602 61.8045C201.397 61.994 201.157 62.1413 200.895 62.2381C200.634 62.3348 200.355 62.3791 200.077 62.3683C199.798 62.3576 199.524 62.292 199.27 62.1754L190.905 58.3283C190.394 58.0924 189.997 57.6633 189.802 57.1352C189.607 56.6071 189.629 56.0232 189.865 55.5117C190.1 55.0003 190.529 54.6032 191.057 54.4077C191.585 54.2122 192.169 54.2342 192.681 54.4689L201.046 58.3161C201.3 58.4327 201.528 58.5981 201.718 58.8028C201.907 59.0074 202.055 59.2475 202.151 59.5091C202.248 59.7707 202.292 60.0488 202.282 60.3276C202.271 60.6063 202.205 60.8802 202.089 61.1336Z" fill="#3F3D56"/>
<path d="M215.362 61.1336C215.479 61.387 215.644 61.615 215.849 61.8045C216.054 61.994 216.294 62.1413 216.556 62.238C216.817 62.3348 217.096 62.3791 217.374 62.3683C217.653 62.3576 217.927 62.292 218.181 62.1754L226.546 58.3283C227.058 58.0928 227.455 57.6637 227.651 57.1353C227.846 56.6069 227.824 56.0226 227.588 55.5108C227.353 54.999 226.923 54.6017 226.395 54.4064C225.866 54.211 225.282 54.2335 224.77 54.4689L216.404 58.3161C216.151 58.4327 215.923 58.5981 215.733 58.8028C215.544 59.0074 215.396 59.2474 215.3 59.5091C215.203 59.7707 215.158 60.0488 215.169 60.3276C215.18 60.6063 215.245 60.8802 215.362 61.1336Z" fill="#3F3D56"/>
<path d="M217.225 82.9853C217.504 82.9853 217.781 82.9304 218.038 82.8236C218.296 82.7169 218.53 82.5604 218.728 82.3632C218.925 82.1659 219.082 81.9318 219.188 81.6741C219.295 81.4163 219.35 81.1401 219.35 80.8612V71.6568C219.35 71.0934 219.126 70.5532 218.728 70.1548C218.329 69.7565 217.789 69.5327 217.225 69.5327C216.662 69.5327 216.121 69.7565 215.723 70.1548C215.324 70.5532 215.1 71.0934 215.1 71.6568V80.8612C215.1 81.1401 215.155 81.4163 215.262 81.6741C215.369 81.9318 215.525 82.1659 215.723 82.3632C215.92 82.5604 216.154 82.7169 216.412 82.8236C216.67 82.9304 216.946 82.9853 217.225 82.9853Z" fill="#3F3D56"/>
<path d="M226.106 23.3961C226.289 23.1649 226.422 22.8974 226.495 22.6113C226.567 22.3251 226.579 22.0268 226.527 21.7361L225.371 14.9353L224.214 8.1345C224.152 7.7673 223.994 7.42301 223.756 7.13622C223.518 6.84943 223.209 6.63025 222.86 6.50071C222.511 6.37117 222.133 6.33583 221.766 6.39825C221.399 6.46067 221.054 6.61864 220.767 6.8563L215.454 11.2578L212.252 13.9096C210.117 13.5301 207.935 13.4972 205.789 13.8122L202.706 11.2578L197.392 6.8563C197.105 6.61864 196.761 6.46067 196.393 6.39825C196.026 6.33583 195.649 6.37117 195.299 6.50071C194.95 6.63025 194.641 6.84943 194.403 7.13622C194.165 7.42301 194.007 7.76731 193.945 8.1345L192.788 14.9353L191.632 21.7361C191.57 22.0935 191.602 22.4608 191.724 22.8023C189.742 25.8394 188.611 29.3519 188.447 32.9745C188.283 36.597 189.094 40.1972 190.794 43.4005C192.494 46.6038 195.022 49.2933 198.114 51.1892C201.207 53.085 204.751 54.118 208.378 54.1806C212.005 54.2433 215.583 53.3333 218.739 51.5454C221.895 49.7574 224.514 47.1569 226.324 44.0141C228.133 40.8714 229.068 37.3014 229.029 33.6754C228.991 30.0494 227.982 26.4999 226.106 23.3961Z" fill="#3F3D56"/>
<path d="M196.859 9.64317C196.733 9.64335 196.608 9.66603 196.49 9.71013C196.317 9.77329 196.163 9.88151 196.045 10.0237C195.927 10.1658 195.85 10.3368 195.82 10.519L194.417 18.7662C194.386 18.948 194.404 19.1348 194.468 19.3076C194.532 19.4805 194.641 19.6335 194.783 19.7512C194.925 19.8688 195.095 19.947 195.277 19.9779C195.459 20.0088 195.646 19.9913 195.819 19.9272L203.665 17.0176C203.838 16.9534 203.991 16.845 204.109 16.703C204.227 16.561 204.305 16.3906 204.336 16.2088C204.367 16.027 204.349 15.8403 204.285 15.6675C204.221 15.4946 204.112 15.3417 203.97 15.224L197.526 9.88621C197.339 9.72964 197.103 9.64363 196.859 9.64317Z" fill="#E6E6E6"/>
<path d="M221.3 9.64317C221.056 9.64363 220.82 9.72964 220.633 9.88621L214.189 15.224C214.047 15.3417 213.938 15.4946 213.874 15.6675C213.81 15.8403 213.793 16.027 213.824 16.2088C213.854 16.3906 213.933 16.561 214.05 16.703C214.168 16.845 214.321 16.9534 214.494 17.0176L222.34 19.9272C222.513 19.9913 222.7 20.0088 222.882 19.9779C223.064 19.947 223.234 19.8688 223.377 19.7512C223.519 19.6335 223.627 19.4805 223.691 19.3076C223.755 19.1348 223.773 18.948 223.742 18.7662L222.34 10.519C222.31 10.3368 222.232 10.1658 222.114 10.0237C221.996 9.88151 221.842 9.77329 221.669 9.71013C221.551 9.66603 221.426 9.64335 221.3 9.64317Z" fill="#E6E6E6"/>
<path d="M208.725 39.5594C210.29 39.5594 211.559 38.2914 211.559 36.7272C211.559 35.1631 210.29 33.8951 208.725 33.8951C207.161 33.8951 205.892 35.1631 205.892 36.7272C205.892 38.2914 207.161 39.5594 208.725 39.5594Z" fill="#E6E6E6"/>
<path d="M208.725 36.0192C209.769 36.0192 210.614 35.7022 210.614 35.3112C210.614 34.9201 209.769 34.6031 208.725 34.6031C207.682 34.6031 206.837 34.9201 206.837 35.3112C206.837 35.7022 207.682 36.0192 208.725 36.0192Z" fill="#3F3D56"/>
<path d="M207.309 38.3793H209.906V41.5654C209.906 41.7359 209.872 41.9047 209.807 42.0622C209.742 42.2197 209.646 42.3628 209.526 42.4833C209.405 42.6038 209.262 42.6995 209.104 42.7647C208.947 42.8299 208.778 42.8635 208.607 42.8635C208.263 42.8635 207.933 42.7267 207.689 42.4833C207.446 42.2399 207.309 41.9097 207.309 41.5654L207.309 38.3793Z" fill="#FF6584"/>
<path d="M208.883 6.2552C208.747 6.53751 208.615 6.82288 208.49 7.11407C207.025 10.53 206.531 14.2838 207.062 17.9624C207.328 17.5768 207.607 17.1752 207.892 16.7691C207.283 13.2386 207.625 9.60981 208.883 6.2552Z" fill="#3F3D56"/>
<path d="M211.008 8.85132C210.872 9.13363 210.74 9.41899 210.615 9.71019C209.15 13.1261 208.656 16.8799 209.187 20.5585C209.453 20.173 209.732 19.7713 210.017 19.3652C209.408 15.8347 209.75 12.2059 211.008 8.85132Z" fill="#3F3D56"/>
<path d="M217.56 59.8183L217.26 56.0129L216.961 52.2075C216.945 52.002 216.875 51.8044 216.758 51.6346C216.641 51.4647 216.482 51.3286 216.296 51.2398C216.109 51.1511 215.903 51.1129 215.698 51.129C215.492 51.1452 215.295 51.2152 215.125 51.3319L211.977 53.4937L209.679 55.0724C209.532 54.9005 209.35 54.7624 209.144 54.6678C208.939 54.5731 208.716 54.5241 208.489 54.5241C208.263 54.5241 208.04 54.5731 207.834 54.6678C207.629 54.7624 207.447 54.9005 207.3 55.0724L205.001 53.4937L201.854 51.3319C201.684 51.2151 201.487 51.1452 201.281 51.129C201.075 51.1129 200.869 51.1511 200.683 51.2398C200.497 51.3286 200.338 51.4647 200.221 51.6346C200.104 51.8044 200.034 52.002 200.018 52.2075L199.719 56.0129L199.419 59.8183C199.403 60.0238 199.441 60.2299 199.53 60.4159C199.619 60.6019 199.755 60.7613 199.925 60.878C200.095 60.9947 200.293 61.0647 200.498 61.0809C200.704 61.097 200.91 61.0588 201.096 60.9701L204.543 59.3265L207.374 57.976C207.52 58.1236 207.694 58.2408 207.885 58.3208C208.077 58.4008 208.282 58.442 208.489 58.442C208.697 58.442 208.902 58.4008 209.094 58.3208C209.285 58.2408 209.459 58.1236 209.604 57.976L212.436 59.3265L215.883 60.9701C216.069 61.0588 216.275 61.097 216.481 61.0809C216.686 61.0647 216.884 60.9948 217.054 60.878C217.224 60.7613 217.36 60.6019 217.449 60.4159C217.537 60.2299 217.576 60.0238 217.56 59.8183Z" fill="#6C63FF"/>
<path d="M204.948 34.3671C205.339 34.3671 205.656 34.0501 205.656 33.6591C205.656 33.2681 205.339 32.9511 204.948 32.9511C204.557 32.9511 204.239 33.2681 204.239 33.6591C204.239 34.0501 204.557 34.3671 204.948 34.3671Z" fill="#E6E6E6"/>
<path d="M212.503 34.3671C212.894 34.3671 213.211 34.0501 213.211 33.6591C213.211 33.2681 212.894 32.9511 212.503 32.9511C212.112 32.9511 211.795 33.2681 211.795 33.6591C211.795 34.0501 212.112 34.3671 212.503 34.3671Z" fill="#E6E6E6"/>
<path d="M71.6757 74.6013C71.848 74.6036 72.0204 74.606 72.1951 74.606C72.3698 74.606 72.5422 74.6036 72.7145 74.6013C81.8519 74.3936 88.4746 68.6868 86.7888 62.6993L82.6782 48.0926L81.6394 44.3966L63.2231 44.7105L62.1039 48.3262L57.6982 62.5577C55.8329 68.5783 62.4557 74.3936 71.6757 74.6013Z" fill="#3F3D56"/>
<path opacity="0.2" d="M62.104 48.3262C65.2441 50.1204 68.8062 51.0447 72.4229 51.0036C76.0396 50.9626 79.5798 49.9576 82.6783 48.0926L81.6395 44.3966L63.2231 44.7105L62.104 48.3262Z" fill="black"/>
<path d="M60.6444 61.4527C58.6567 59.1142 54.4632 56.3684 45.629 54.8457C30.2215 52.1889 34.2307 42.8324 34.4085 42.4357C34.7817 41.6035 34.4043 41.046 33.5576 41.1953C33.081 41.3143 32.6354 41.5338 32.2506 41.839C31.8658 42.1443 31.5508 42.5282 31.3266 42.9651C31.0989 43.4517 25.9555 54.908 43.341 57.9045C58.9879 60.6026 59.0437 67.171 59.0396 67.2363C58.9979 67.9613 59.7207 68.1836 60.6555 67.7336C61.5903 67.2836 62.3828 66.3312 62.4257 65.6063C62.4344 65.4531 62.4953 63.6295 60.6444 61.4527Z" fill="#3F3D56"/>
<path d="M80.695 76.7301C80.9741 76.7301 81.2504 76.6752 81.5082 76.5684C81.766 76.4617 82.0003 76.3052 82.1976 76.108C82.3949 75.9107 82.5515 75.6766 82.6582 75.4189C82.765 75.1611 82.82 74.8849 82.82 74.606V65.4016C82.8193 64.8387 82.5951 64.2991 82.1967 63.9013C81.7983 63.5035 81.2582 63.28 80.695 63.28C80.1319 63.28 79.5918 63.5035 79.1934 63.9013C78.7949 64.2991 78.5707 64.8387 78.5701 65.4016V74.606C78.5701 74.8849 78.625 75.1611 78.7318 75.4189C78.8386 75.6766 78.9951 75.9107 79.1924 76.108C79.3898 76.3052 79.624 76.4617 79.8818 76.5684C80.1396 76.6752 80.416 76.7301 80.695 76.7301Z" fill="#3F3D56"/>
<path d="M78.8319 54.8784C78.9485 55.1318 79.1139 55.3598 79.3187 55.5493C79.5235 55.7388 79.7636 55.8861 80.0253 55.9829C80.287 56.0796 80.5653 56.1239 80.8441 56.1131C81.123 56.1024 81.397 56.0368 81.6505 55.9202L90.0157 52.0731C90.2695 51.9567 90.4979 51.7914 90.6878 51.5867C90.8776 51.382 91.0253 51.142 91.1223 50.8802C91.2193 50.6185 91.2637 50.3402 91.253 50.0612C91.2423 49.7823 91.1768 49.5082 91.06 49.2547C90.9433 49.0011 90.7778 48.773 90.5728 48.5834C90.3678 48.3938 90.1275 48.2465 89.8655 48.1498C89.6036 48.0532 89.3251 48.009 89.0461 48.02C88.7671 48.031 88.4929 48.0968 88.2394 48.2138L79.8741 52.0609C79.6206 52.1775 79.3926 52.3429 79.203 52.5476C79.0134 52.7523 78.866 52.9923 78.7692 53.2539C78.6724 53.5155 78.6282 53.7936 78.6389 54.0724C78.6497 54.3511 78.7152 54.625 78.8319 54.8784Z" fill="#3F3D56"/>
<path d="M65.5584 54.8784C65.4418 55.1318 65.2764 55.3598 65.0716 55.5493C64.8668 55.7388 64.6267 55.8861 64.365 55.9829C64.1033 56.0796 63.825 56.1239 63.5462 56.1131C63.2673 56.1024 62.9933 56.0368 62.7398 55.9202L54.3746 52.0731C54.1208 51.9567 53.8924 51.7914 53.7025 51.5867C53.5127 51.382 53.365 51.142 53.268 50.8802C53.171 50.6185 53.1266 50.3402 53.1373 50.0612C53.148 49.7823 53.2135 49.5082 53.3303 49.2547C53.447 49.0011 53.6125 48.773 53.8175 48.5834C54.0225 48.3938 54.2628 48.2465 54.5248 48.1498C54.7867 48.0532 55.0652 48.009 55.3442 48.02C55.6232 48.031 55.8974 48.0968 56.1509 48.2138L64.5162 52.0609C64.7697 52.1775 64.9977 52.3429 65.1873 52.5476C65.3769 52.7523 65.5243 52.9923 65.6211 53.2539C65.7179 53.5155 65.7621 53.7936 65.7514 54.0724C65.7406 54.3511 65.6751 54.625 65.5584 54.8784Z" fill="#3F3D56"/>
<path d="M63.6954 76.7301C63.4163 76.7301 63.14 76.6752 62.8822 76.5684C62.6244 76.4617 62.3901 76.3052 62.1928 76.108C61.9955 75.9107 61.839 75.6766 61.7322 75.4189C61.6254 75.1611 61.5704 74.8849 61.5704 74.606V65.4016C61.5711 64.8387 61.7953 64.2991 62.1937 63.9013C62.5922 63.5035 63.1323 63.28 63.6954 63.28C64.2585 63.28 64.7986 63.5035 65.1971 63.9013C65.5955 64.2991 65.8197 64.8387 65.8203 65.4016V74.606C65.8204 74.8849 65.7654 75.1611 65.6586 75.4189C65.5518 75.6766 65.3953 75.9107 65.198 76.108C65.0006 76.3052 64.7664 76.4617 64.5086 76.5684C64.2508 76.6752 63.9744 76.7301 63.6954 76.7301Z" fill="#3F3D56"/>
<path d="M89.1963 16.5471C89.3187 16.2056 89.3506 15.8383 89.2888 15.4808L88.1323 8.68007L86.9758 1.87929C86.9134 1.5121 86.7553 1.1678 86.5176 0.881013C86.2798 0.594223 85.9708 0.375046 85.6214 0.245504C85.2721 0.115963 84.8948 0.0806212 84.5274 0.143039C84.1601 0.205457 83.8156 0.363434 83.5287 0.601087L78.2149 5.00263L75.1312 7.55699C72.9857 7.24202 70.8034 7.27491 68.6684 7.6544L65.467 5.00262L60.1533 0.601078C59.8664 0.363424 59.5219 0.205448 59.1546 0.14303C58.7872 0.0806114 58.4099 0.115948 58.0606 0.24549C57.7112 0.375032 57.4021 0.594213 57.1644 0.881004C56.9266 1.16779 56.7686 1.51209 56.7062 1.87928L55.5496 8.68007L54.3931 15.4808C54.3421 15.7716 54.3533 16.0699 54.426 16.356C54.4987 16.6422 54.6312 16.9097 54.8149 17.1409C52.9366 20.2454 51.9251 23.7963 51.8855 27.4242C51.8459 31.052 52.7797 34.6242 54.5897 37.7689C56.3997 40.9136 59.0197 43.516 62.1772 45.3052C65.3347 47.0944 68.9141 48.0051 72.5431 47.9424C76.1721 47.8797 79.718 46.846 82.8117 44.9488C85.9055 43.0517 88.434 40.3603 90.1343 37.155C91.8345 33.9496 92.6443 30.3474 92.4793 26.723C92.3143 23.0987 91.1807 19.5848 89.1963 16.5471Z" fill="#3F3D56"/>
<path d="M83.3943 3.63101L76.9505 8.96856C76.8084 9.08621 76.6998 9.23939 76.6357 9.41226C76.5715 9.58513 76.554 9.77183 76.5849 9.9536C76.6158 10.1354 76.6941 10.3058 76.8118 10.4478C76.9295 10.5897 77.0825 10.6982 77.2554 10.7624L85.1018 13.6719C85.2748 13.7361 85.4616 13.7536 85.6434 13.7227C85.8253 13.6918 85.9958 13.6136 86.1379 13.4959C86.2799 13.3783 86.3885 13.2253 86.4527 13.0524C86.5168 12.8795 86.5344 12.6928 86.5034 12.511L85.101 4.26379C85.0711 4.08158 84.9932 3.91062 84.8753 3.76846C84.7574 3.6263 84.6038 3.51808 84.4302 3.45492C84.3122 3.41082 84.1872 3.38815 84.0612 3.38797C83.8173 3.38843 83.5813 3.47444 83.3943 3.63101Z" fill="#E6E6E6"/>
<path d="M59.2517 3.45492C59.0782 3.51808 58.9245 3.6263 58.8067 3.76845C58.6888 3.91061 58.6109 4.08158 58.581 4.26379L57.1786 12.511C57.1476 12.6928 57.1652 12.8795 57.2293 13.0524C57.2935 13.2253 57.4021 13.3783 57.5441 13.4959C57.6862 13.6136 57.8567 13.6918 58.0386 13.7227C58.2204 13.7536 58.4072 13.7361 58.5802 13.6719L66.4266 10.7624C66.5995 10.6982 66.7525 10.5897 66.8702 10.4478C66.9879 10.3058 67.0661 10.1354 67.0971 9.9536C67.128 9.77183 67.1105 9.58513 67.0463 9.41226C66.9822 9.23939 66.8737 9.08644 66.7316 8.96879L60.2877 3.63101C60.1007 3.47443 59.8647 3.38842 59.6208 3.38797C59.4947 3.38815 59.3698 3.41082 59.2517 3.45492Z" fill="#E6E6E6"/>
<path d="M72.1951 33.3041C73.7599 33.3041 75.0284 32.0362 75.0284 30.472C75.0284 28.9079 73.7599 27.6399 72.1951 27.6399C70.6303 27.6399 69.3618 28.9079 69.3618 30.472C69.3618 32.0362 70.6303 33.3041 72.1951 33.3041Z" fill="#E6E6E6"/>
<path d="M72.1951 29.764C73.2383 29.764 74.084 29.447 74.084 29.056C74.084 28.6649 73.2383 28.3479 72.1951 28.3479C71.1519 28.3479 70.3063 28.6649 70.3063 29.056C70.3063 29.447 71.1519 29.764 72.1951 29.764Z" fill="#3F3D56"/>
<path d="M72.3132 36.6083C72.1427 36.6083 71.9738 36.5747 71.8163 36.5095C71.6587 36.4443 71.5156 36.3486 71.395 36.2281C71.2744 36.1076 71.1788 35.9645 71.1135 35.807C71.0482 35.6495 71.0146 35.4807 71.0146 35.3102V32.1241H73.6118V35.3102C73.6118 35.4807 73.5782 35.6495 73.513 35.807C73.4477 35.9645 73.3521 36.1076 73.2315 36.2281C73.1109 36.3486 72.9677 36.4443 72.8102 36.5095C72.6526 36.5747 72.4838 36.6083 72.3132 36.6083Z" fill="#FF6584"/>
<path d="M72.0375 0C72.1737 0.282307 72.3059 0.567668 72.4303 0.858864C73.8956 4.2748 74.3897 8.02859 73.8583 11.7072C73.5925 11.3216 73.3131 10.92 73.029 10.5139C73.6376 6.98338 73.2953 3.35461 72.0375 0Z" fill="#3F3D56"/>
<path d="M69.9126 2.59612C70.0488 2.87843 70.181 3.16378 70.3054 3.45498C71.7707 6.87091 72.2648 10.6247 71.7335 14.3033C71.4676 13.9177 71.1883 13.5161 70.9041 13.11C71.5127 9.5795 71.1705 5.95073 69.9126 2.59612Z" fill="#3F3D56"/>
<path d="M63.3612 12.2613L63.6605 8.45585L63.9599 4.65043C63.976 4.44497 64.046 4.24737 64.1628 4.07751C64.2796 3.90764 64.439 3.7715 64.6251 3.68276C64.8112 3.59401 65.0174 3.5558 65.2229 3.57196C65.4285 3.58812 65.6262 3.65808 65.7961 3.7748L68.9433 5.93665L71.2416 7.5153C71.3884 7.34339 71.5709 7.20536 71.7762 7.11071C71.9816 7.01606 72.2051 6.96705 72.4313 6.96705C72.6574 6.96705 72.8809 7.01606 73.0863 7.11071C73.2917 7.20536 73.4741 7.34339 73.621 7.5153L75.9192 5.93665L79.0665 3.7748C79.2364 3.65808 79.4341 3.58812 79.6396 3.57196C79.8452 3.5558 80.0514 3.59401 80.2375 3.68276C80.4236 3.7715 80.583 3.90764 80.6998 4.07751C80.8166 4.24737 80.8865 4.44497 80.9027 4.65043L81.2021 8.45585L81.5014 12.2613C81.5176 12.4667 81.4793 12.6728 81.3906 12.8588C81.3018 13.0449 81.1656 13.2042 80.9957 13.321C80.8257 13.4377 80.6281 13.5076 80.4225 13.5238C80.217 13.54 80.0108 13.5017 79.8247 13.413L76.3781 11.7694L73.5461 10.419C73.4004 10.5666 73.2268 10.6838 73.0355 10.7637C72.8441 10.8437 72.6387 10.8849 72.4313 10.8849C72.2238 10.8849 72.0185 10.8437 71.8271 10.7637C71.6357 10.6838 71.4621 10.5666 71.3164 10.419L68.4845 11.7694L65.0379 13.413C64.8518 13.5018 64.6456 13.54 64.4401 13.5238C64.2345 13.5077 64.0368 13.4377 63.8669 13.321C63.697 13.2043 63.5608 13.0449 63.472 12.8588C63.3832 12.6728 63.345 12.4667 63.3612 12.2613Z" fill="#6C63FF"/>
<path d="M75.2645 27.4039C75.2645 27.7949 75.5817 27.4039 75.9729 27.4039C76.364 27.4039 76.6812 27.7949 76.6812 27.4039C76.6808 27.2164 76.606 27.0366 76.4732 26.9042C76.3404 26.7717 76.1605 26.6973 75.9729 26.6973C75.7852 26.6973 75.6053 26.7717 75.4725 26.9042C75.3397 27.0366 75.2649 27.2164 75.2645 27.4039Z" fill="#E6E6E6"/>
<path d="M69.1257 27.4039C69.1257 27.7949 68.8086 27.4039 68.4174 27.4039C68.0262 27.4039 67.7091 27.7949 67.7091 27.4039C67.7095 27.2164 67.7843 27.0366 67.9171 26.9042C68.0499 26.7717 68.2298 26.6973 68.4174 26.6973C68.605 26.6973 68.785 26.7717 68.9178 26.9042C69.0506 27.0366 69.1254 27.2164 69.1257 27.4039Z" fill="#E6E6E6"/>
<path d="M147.711 80.8625V76.3619H125.2V76.6434V80.8625V117.148V121.649H129.702H147.711V117.148H129.702V80.8625H147.711Z" fill="#3F3D56"/>
<path d="M158.686 76.362V121.649H181.198V76.362H158.686ZM176.695 117.148H163.188V80.8626H176.695V117.148Z" fill="#6C63FF"/>
<path d="M96.2156 117.148V76.6434H91.7131V117.148V121.649H96.2156H114.225V117.148H96.2156Z" fill="#6C63FF"/>
<path d="M81.5829 80.8625V76.3619H59.071V76.6434V80.8625V96.6145V101.115V117.148V121.649H63.5735H81.5829V117.148H63.5735V101.115H81.5829V96.6145H63.5735V80.8625H81.5829Z" fill="#3F3D56"/>
<path d="M257.738 80.8625V76.3619H235.226V76.6434V80.8625V96.6145V101.115V117.148V121.649H239.729H257.738V117.148H239.729V101.115H257.738V96.6145H239.729V80.8625H257.738Z" fill="#6C63FF"/>
<path d="M43.8756 76.6434V113.839L32.0043 101.973L31.9773 102.001L31.9521 101.975L19.8162 114.106V76.5028H15.3137V121.508H19.8162V120.471L31.9794 108.313L43.8756 120.204V121.649H48.378V76.6434H43.8756Z" fill="#3F3D56"/>
<path d="M220.312 76.6434V77.6802L208.149 89.8386L196.253 77.9473V76.5028H191.75V121.508H196.253V84.3119L208.124 96.1783L208.151 96.151L208.176 96.1759L220.312 84.0448V121.649H224.814V76.6434H220.312Z" fill="#3F3D56"/>
<path d="M102.888 48.9193C104.415 48.9193 105.652 47.6825 105.652 46.1568C105.652 44.6312 104.415 43.3944 102.888 43.3944C101.362 43.3944 100.125 44.6312 100.125 46.1568C100.125 47.6825 101.362 48.9193 102.888 48.9193Z" fill="#6C63FF"/>
<path d="M34.7211 79.6128C36.2473 79.6128 37.4846 78.3761 37.4846 76.8504C37.4846 75.3248 36.2473 74.088 34.7211 74.088C33.1948 74.088 31.9575 75.3248 31.9575 76.8504C31.9575 78.3761 33.1948 79.6128 34.7211 79.6128Z" fill="#6C63FF"/>
<path d="M89.3778 141C90.9041 141 92.1413 139.763 92.1413 138.238C92.1413 136.712 90.9041 135.475 89.3778 135.475C87.8515 135.475 86.6143 136.712 86.6143 138.238C86.6143 139.763 87.8515 141 89.3778 141Z" fill="#6C63FF"/>
<path d="M158.774 57.2065C160.3 57.2065 161.537 55.9698 161.537 54.4441C161.537 52.9185 160.3 51.6817 158.774 51.6817C157.247 51.6817 156.01 52.9185 156.01 54.4441C156.01 55.9698 157.247 57.2065 158.774 57.2065Z" fill="#6C63FF"/>
<path d="M240.145 138.545C241.671 138.545 242.908 137.308 242.908 135.782C242.908 134.256 241.671 133.02 240.145 133.02C238.618 133.02 237.381 134.256 237.381 135.782C237.381 137.308 238.618 138.545 240.145 138.545Z" fill="#6C63FF"/>
<path d="M242.908 66.1077C244.434 66.1077 245.672 64.8709 245.672 63.3452C245.672 61.8196 244.434 60.5828 242.908 60.5828C241.382 60.5828 240.145 61.8196 240.145 63.3452C240.145 64.8709 241.382 66.1077 242.908 66.1077Z" fill="#6C63FF"/>
<path d="M207.903 115.831C209.429 115.831 210.667 114.594 210.667 113.069C210.667 111.543 209.429 110.306 207.903 110.306C206.377 110.306 205.14 111.543 205.14 113.069C205.14 114.594 206.377 115.831 207.903 115.831Z" fill="#6C63FF"/>
</g>
<defs>
<clipPath id="clip0_380_26">
<rect width="273" height="141" fill="white"/>
</clipPath>
</defs>
</svg>
