<svg width="21" height="21" viewBox="0 0 21 21" fill="none" xmlns="http://www.w3.org/2000/svg">
<g clip-path="url(#clip0_24_252)">
<path d="M20.9889 10.6964C20.9889 9.83609 20.9174 9.20825 20.7628 8.55717H10.7091V12.4404H16.6104C16.4915 13.4054 15.849 14.8588 14.4212 15.8354L14.4012 15.9654L17.58 18.3718L17.8002 18.3933C19.8228 16.5679 20.9889 13.8821 20.9889 10.6964Z" fill="#4285F4"/>
<path d="M10.7092 20.9279C13.6004 20.9279 16.0275 19.9977 17.8003 18.3933L14.4213 15.8354C13.5171 16.4516 12.3035 16.8818 10.7092 16.8818C7.87755 16.8818 5.4742 15.0564 4.61747 12.5335L4.49189 12.5439L1.18654 15.0436L1.14331 15.161C2.90418 18.5792 6.52114 20.9279 10.7092 20.9279Z" fill="#34A853"/>
<path d="M4.61742 12.5335C4.39137 11.8824 4.26054 11.1847 4.26054 10.4639C4.26054 9.74304 4.39137 9.04547 4.60553 8.39439L4.59954 8.25573L1.25277 5.71585L1.14327 5.76675C0.417528 7.18521 0.00109863 8.77808 0.00109863 10.4639C0.00109863 12.1498 0.417528 13.7426 1.14327 15.161L4.61742 12.5335Z" fill="#FBBC05"/>
<path d="M10.7092 4.04603C12.7199 4.04603 14.0763 4.89476 14.8496 5.60403L17.8717 2.72062C16.0157 1.03477 13.6004 0 10.7092 0C6.52113 0 2.90418 2.34855 1.14331 5.76674L4.60557 8.39439C5.4742 5.87142 7.87754 4.04603 10.7092 4.04603Z" fill="#EB4335"/>
</g>
<defs>
<clipPath id="clip0_24_252">
<rect width="21" height="21" fill="white"/>
</clipPath>
</defs>
</svg>
