<svg width="289" height="208" viewBox="0 0 289 208" fill="none" xmlns="http://www.w3.org/2000/svg">
<path d="M117.427 11.742H15.7115V113.458H117.427V11.742Z" fill="#F4F4F4"/>
<path d="M15.7111 11.742H14.5454V113.458H15.7111V11.742Z" fill="#F4F4F4"/>
<path opacity="0.05" d="M15.7111 11.742H14.5454V113.458H15.7111V11.742Z" fill="#292A2E"/>
<path opacity="0.05" d="M40.3522 81.8323V55.2204H62.1515V70.6814H95.9187V98.0569H110.27V113.458H95.9187H93.154H20.6043V81.8323H40.3522Z" fill="#292A2E"/>
<path opacity="0.34" d="M59.3535 58.1096H43.4791V60.9991H59.3535V58.1096Z" fill="#FFFFFA"/>
<path opacity="0.34" d="M59.3535 64.0972H43.4791V66.9867H59.3535V64.0972Z" fill="#FFFFFA"/>
<path opacity="0.34" d="M59.3535 70.0848H43.4791V72.9744H59.3535V70.0848Z" fill="#FFFFFA"/>
<path opacity="0.34" d="M26.3454 84.6371H23.4194V87.5267H26.3454V84.6371Z" fill="#FFFFFA"/>
<path opacity="0.34" d="M26.3454 90.6247H23.4194V93.5143H26.3454V90.6247Z" fill="#FFFFFA"/>
<path opacity="0.34" d="M26.3454 96.6123H23.4194V99.5019H26.3454V96.6123Z" fill="#FFFFFA"/>
<path opacity="0.34" d="M31.758 84.6371H28.832V87.5267H31.758V84.6371Z" fill="#FFFFFA"/>
<path opacity="0.34" d="M31.758 90.6247H28.832V93.5143H31.758V90.6247Z" fill="#FFFFFA"/>
<path opacity="0.34" d="M31.758 96.6123H28.832V99.5019H31.758V96.6123Z" fill="#FFFFFA"/>
<path opacity="0.34" d="M37.0245 84.6371H34.0985V87.5267H37.0245V84.6371Z" fill="#FFFFFA"/>
<path opacity="0.34" d="M37.0245 90.6247H34.0985V93.5143H37.0245V90.6247Z" fill="#FFFFFA"/>
<path opacity="0.34" d="M37.0245 96.6123H34.0985V99.5019H37.0245V96.6123Z" fill="#FFFFFA"/>
<path d="M15.7115 62.0291H36.1782V11.742H37.8708V62.0291H93.154V11.742H94.8467V62.0291H117.427V63.7218H94.8467V113.458H93.154V63.7218H37.8708V113.458H36.1782V63.7218H15.7115V62.0291Z" fill="white"/>
<path d="M121.479 113.335H11.6594V116.717H121.479V113.335Z" fill="#F4F4F4"/>
<path opacity="0.1" d="M121.479 113.335H11.6594V116.717H121.479V113.335Z" fill="#292A2E"/>
<path opacity="0.1" d="M11.659 113.335H10.0736V116.717H11.659V113.335Z" fill="#292A2E"/>
<path opacity="0.1" d="M11.659 113.335H10.0736V116.717H11.659V113.335Z" fill="#292A2E"/>
<path d="M14.5454 16.073L117.427 16.073V13.5579L14.5454 13.5579V16.073Z" fill="white"/>
<path d="M14.5454 20.7704L117.427 20.7704V18.2554L14.5454 18.2554V20.7704Z" fill="white"/>
<path d="M14.5454 25.4676L117.427 25.4676V22.9525L14.5454 22.9525V25.4676Z" fill="white"/>
<path d="M14.5454 30.1651L117.427 30.1651V27.65L14.5454 27.65V30.1651Z" fill="white"/>
<path d="M14.5454 34.8629L117.427 34.8629V32.3479L14.5454 32.3479V34.8629Z" fill="white"/>
<path d="M25.4726 37.6993H27.0145L27.0145 11.7416H25.4726L25.4726 37.6993Z" fill="white"/>
<path d="M26.1129 41.4272C27.2827 41.4272 28.2309 40.4789 28.2309 39.3091C28.2309 38.1394 27.2827 37.1911 26.1129 37.1911C24.9431 37.1911 23.9948 38.1394 23.9948 39.3091C23.9948 40.4789 24.9431 41.4272 26.1129 41.4272Z" fill="white"/>
<path d="M248.33 11.1738H205.532V66.8799H248.33V11.1738Z" fill="#F4F4F4"/>
<path d="M248.33 66.8799H249.718V11.1738H248.33V66.8799Z" fill="#F4F4F4"/>
<path opacity="0.05" d="M248.33 66.8799H249.718V11.1738H248.33V66.8799Z" fill="#292A2E"/>
<path opacity="0.05" d="M240.534 21.3211H213.328V56.7322H240.534V21.3211Z" fill="#292A2E"/>
<path opacity="0.03" d="M240.534 21.3211H239.116V56.7322H240.534V21.3211Z" fill="#292A2E"/>
<path d="M283.331 80.5791H248.33V115.902H283.331V80.5791Z" fill="#F4F4F4"/>
<path opacity="0.05" d="M276.955 87.0137H254.706V109.468H276.955V87.0137Z" fill="#292A2E"/>
<path d="M283.331 115.902H284.719V80.5787H283.331V115.902Z" fill="#F4F4F4"/>
<path opacity="0.05" d="M283.331 115.902H284.719V80.5787H283.331V115.902Z" fill="#292A2E"/>
<path opacity="0.03" d="M276.955 87.0137H275.537V109.468H276.955V87.0137Z" fill="#292A2E"/>
<path d="M167.26 140.412C167.214 140.412 167.168 140.401 167.127 140.38L98.2145 106.32C98.1694 106.298 98.1307 106.265 98.1018 106.224C98.0729 106.182 98.0548 106.135 98.0491 106.085C98.0434 106.035 98.0503 105.985 98.0692 105.938C98.0881 105.892 98.1184 105.851 98.1572 105.819L167.048 49.2948C167.101 49.2507 167.169 49.2265 167.238 49.2265C167.308 49.2265 167.375 49.2507 167.428 49.2948L236.363 105.819C236.401 105.851 236.432 105.892 236.45 105.938C236.469 105.985 236.476 106.035 236.47 106.085C236.465 106.135 236.446 106.182 236.418 106.223C236.389 106.264 236.35 106.298 236.306 106.32L167.393 140.382C167.351 140.402 167.306 140.412 167.26 140.412ZM98.8971 105.988L167.26 139.778L235.622 105.988L167.238 49.9138L98.8971 105.988Z" fill="#292A2E"/>
<path d="M241.519 0.375015L227.802 18.7581V175.186C227.802 176.664 227.215 178.082 226.17 179.128C225.124 180.173 223.706 180.76 222.228 180.76H112.248C111.516 180.76 110.791 180.616 110.115 180.336C109.439 180.056 108.824 179.645 108.306 179.128C107.789 178.61 107.378 177.995 107.098 177.319C106.818 176.643 106.674 175.918 106.674 175.186V15.4363C106.674 11.4419 108.261 7.61104 111.085 4.78651C113.91 1.96198 117.74 0.375121 121.735 0.375015H241.519Z" fill="white"/>
<path d="M222.228 181.059H112.248C110.691 181.056 109.198 180.437 108.097 179.336C106.996 178.235 106.376 176.743 106.373 175.186V15.4363C106.378 11.3636 107.998 7.45911 110.878 4.57929C113.758 1.69948 117.662 0.0795502 121.735 0.0748901L241.519 0.0748901C241.574 0.075038 241.629 0.0906489 241.676 0.119982C241.724 0.149315 241.762 0.191216 241.787 0.241013C241.812 0.29081 241.822 0.346545 241.817 0.402002C241.812 0.457458 241.792 0.510456 241.759 0.555084L228.103 18.8577V175.186C228.1 176.743 227.48 178.235 226.379 179.336C225.278 180.437 223.785 181.056 222.228 181.059ZM121.735 0.675133C117.821 0.679581 114.069 2.2362 111.302 5.00349C108.535 7.77079 106.978 11.5228 106.974 15.4363V175.186C106.976 176.584 107.532 177.924 108.521 178.913C109.509 179.902 110.85 180.458 112.248 180.46H222.228C223.626 180.458 224.967 179.902 225.955 178.913C226.944 177.924 227.5 176.584 227.502 175.186V18.758C227.502 18.6933 227.523 18.6303 227.562 18.5784L240.92 0.675133H121.735Z" fill="#292A2E"/>
<path opacity="0.3" d="M205.398 20.3311H129.122C128.875 20.3311 128.675 20.5312 128.675 20.7781V21.5088C128.675 21.7556 128.875 21.9557 129.122 21.9557H205.398C205.645 21.9557 205.845 21.7556 205.845 21.5088V20.7781C205.845 20.5312 205.645 20.3311 205.398 20.3311Z" fill="#262626"/>
<path d="M227.802 14.0914C227.802 10.4536 229.248 6.96475 231.82 4.39244C234.392 1.82013 237.881 0.375015 241.519 0.375015C245.157 0.375015 248.645 1.82013 251.218 4.39244C253.79 6.96475 255.235 10.4536 255.235 14.0914V25.6716H227.802V14.0914Z" fill="white"/>
<path d="M255.235 25.9718H227.802C227.723 25.9718 227.647 25.9401 227.59 25.8839C227.534 25.8276 227.502 25.7512 227.502 25.6716V14.0914C227.492 12.2444 227.848 10.4137 228.548 8.70453C229.248 6.99534 230.279 5.44133 231.581 4.13184C232.884 2.82235 234.432 1.7832 236.137 1.07412C237.843 0.365033 239.672 0 241.519 0C243.366 0 245.194 0.365033 246.9 1.07412C248.605 1.7832 250.154 2.82235 251.456 4.13184C252.759 5.44133 253.79 6.99534 254.49 8.70453C255.189 10.4137 255.545 12.2444 255.535 14.0914V25.6716C255.535 25.7512 255.503 25.8276 255.447 25.8839C255.391 25.9401 255.314 25.9718 255.235 25.9718ZM228.104 25.3715H254.936V14.0914C254.946 12.3234 254.606 10.5709 253.936 8.93474C253.266 7.29855 252.279 5.81091 251.032 4.55733C249.786 3.30375 248.303 2.30895 246.671 1.63013C245.038 0.951317 243.288 0.601864 241.52 0.601864C239.752 0.601864 238.001 0.951317 236.369 1.63013C234.736 2.30895 233.254 3.30375 232.007 4.55733C230.76 5.81091 229.774 7.29855 229.104 8.93474C228.434 10.5709 228.094 12.3234 228.104 14.0914V25.3715Z" fill="#292A2E"/>
<path opacity="0.3" d="M217.606 54.4385H165.876C165.67 54.4385 165.503 54.6055 165.503 54.8114V54.8118C165.503 55.0178 165.67 55.1848 165.876 55.1848H217.606C217.812 55.1848 217.978 55.0178 217.978 54.8118V54.8114C217.978 54.6055 217.812 54.4385 217.606 54.4385Z" fill="#262626"/>
<path opacity="0.3" d="M217.606 49.1395H165.876C165.67 49.1395 165.503 49.3065 165.503 49.5125V49.5129C165.503 49.7189 165.67 49.8858 165.876 49.8858H217.606C217.812 49.8858 217.978 49.7189 217.978 49.5129V49.5125C217.978 49.3065 217.812 49.1395 217.606 49.1395Z" fill="#262626"/>
<path opacity="0.3" d="M217.606 43.8402H165.876C165.67 43.8402 165.503 44.0072 165.503 44.2131V44.2135C165.503 44.4195 165.67 44.5865 165.876 44.5865H217.606C217.812 44.5865 217.978 44.4195 217.978 44.2135V44.2131C217.978 44.0072 217.812 43.8402 217.606 43.8402Z" fill="#262626"/>
<path opacity="0.3" d="M217.606 38.5413H165.876C165.67 38.5413 165.503 38.7082 165.503 38.9142V38.9146C165.503 39.1206 165.67 39.2876 165.876 39.2876H217.606C217.812 39.2876 217.978 39.1206 217.978 38.9146V38.9142C217.978 38.7082 217.812 38.5413 217.606 38.5413Z" fill="#262626"/>
<path opacity="0.3" d="M217.606 33.2187H165.876C165.67 33.2187 165.503 33.3857 165.503 33.5916V33.592C165.503 33.798 165.67 33.965 165.876 33.965H217.606C217.812 33.965 217.978 33.798 217.978 33.592V33.5916C217.978 33.3857 217.812 33.2187 217.606 33.2187Z" fill="#262626"/>
<path opacity="0.3" d="M196.218 59.7374H165.876C165.67 59.7374 165.503 59.9044 165.503 60.1104V60.1108C165.503 60.3168 165.67 60.4837 165.876 60.4837H196.218C196.424 60.4837 196.591 60.3168 196.591 60.1108V60.1104C196.591 59.9044 196.424 59.7374 196.218 59.7374Z" fill="#262626"/>
<path opacity="0.9" d="M157.46 28.9598H117.766C117.09 28.9598 116.541 29.5078 116.541 30.1839V62.7218C116.541 63.3979 117.09 63.9459 117.766 63.9459H157.46C158.136 63.9459 158.684 63.3979 158.684 62.7218V30.1839C158.684 29.5078 158.136 28.9598 157.46 28.9598Z" fill="#0CBC8B"/>
<path opacity="0.8" d="M131.239 42.8466C132.923 42.8466 134.289 41.4814 134.289 39.7973C134.289 38.1133 132.923 36.7481 131.239 36.7481C129.555 36.7481 128.19 38.1133 128.19 39.7973C128.19 41.4814 129.555 42.8466 131.239 42.8466Z" fill="white"/>
<path opacity="0.5" d="M135.438 54.0543L144.278 44.1927C144.83 43.5772 145.603 43.2041 146.428 43.1542C147.253 43.1043 148.065 43.3817 148.687 43.9262L158.684 52.6794V63.9455H146.599" fill="white"/>
<path opacity="0.8" d="M146.6 63.9455L127.432 46.9586C126.865 46.4568 126.137 46.1763 125.38 46.169C124.623 46.1616 123.889 46.4278 123.313 46.9186L116.542 52.681V63.9471" fill="white"/>
<path opacity="0.3" d="M217.57 89.4498H116.95C116.744 89.4498 116.577 89.6168 116.577 89.8228V89.8232C116.577 90.0292 116.744 90.1961 116.95 90.1961H217.57C217.776 90.1961 217.943 90.0292 217.943 89.8232V89.8228C217.943 89.6168 217.776 89.4498 217.57 89.4498Z" fill="#262626"/>
<path opacity="0.3" d="M217.57 84.1509H116.95C116.744 84.1509 116.577 84.3179 116.577 84.5238V84.5242C116.577 84.7302 116.744 84.8972 116.95 84.8972H217.57C217.776 84.8972 217.943 84.7302 217.943 84.5242V84.5238C217.943 84.3179 217.776 84.1509 217.57 84.1509Z" fill="#262626"/>
<path opacity="0.3" d="M217.57 78.8516H116.95C116.744 78.8516 116.577 79.0185 116.577 79.2245V79.2249C116.577 79.4309 116.744 79.5979 116.95 79.5979H217.57C217.776 79.5979 217.943 79.4309 217.943 79.2249V79.2245C217.943 79.0185 217.776 78.8516 217.57 78.8516Z" fill="#262626"/>
<path opacity="0.3" d="M217.57 73.5526H116.95C116.744 73.5526 116.577 73.7196 116.577 73.9256V73.926C116.577 74.1319 116.744 74.2989 116.95 74.2989H217.57C217.776 74.2989 217.943 74.1319 217.943 73.926V73.9256C217.943 73.7196 217.776 73.5526 217.57 73.5526Z" fill="#262626"/>
<path opacity="0.3" d="M147.292 94.7492H116.95C116.744 94.7492 116.577 94.9162 116.577 95.1221V95.1225C116.577 95.3285 116.744 95.4955 116.95 95.4955H147.292C147.498 95.4955 147.665 95.3285 147.665 95.1225V95.1221C147.665 94.9162 147.498 94.7492 147.292 94.7492Z" fill="#262626"/>
<path opacity="0.3" d="M217.57 120.008H116.95C116.744 120.008 116.577 120.175 116.577 120.381V120.382C116.577 120.588 116.744 120.755 116.95 120.755H217.57C217.776 120.755 217.943 120.588 217.943 120.382V120.381C217.943 120.175 217.776 120.008 217.57 120.008Z" fill="#262626"/>
<path opacity="0.3" d="M217.57 114.709H116.95C116.744 114.709 116.577 114.876 116.577 115.082V115.083C116.577 115.289 116.744 115.456 116.95 115.456H217.57C217.776 115.456 217.943 115.289 217.943 115.083V115.082C217.943 114.876 217.776 114.709 217.57 114.709Z" fill="#262626"/>
<path opacity="0.3" d="M217.57 109.41H116.95C116.744 109.41 116.577 109.577 116.577 109.783V109.783C116.577 109.989 116.744 110.156 116.95 110.156H217.57C217.776 110.156 217.943 109.989 217.943 109.783V109.783C217.943 109.577 217.776 109.41 217.57 109.41Z" fill="#262626"/>
<path opacity="0.3" d="M217.57 104.111H116.95C116.744 104.111 116.577 104.278 116.577 104.484V104.484C116.577 104.69 116.744 104.857 116.95 104.857H217.57C217.776 104.857 217.943 104.69 217.943 104.484V104.484C217.943 104.278 217.776 104.111 217.57 104.111Z" fill="#262626"/>
<path opacity="0.3" d="M147.292 125.307H116.95C116.744 125.307 116.577 125.474 116.577 125.68V125.68C116.577 125.886 116.744 126.053 116.95 126.053H147.292C147.498 126.053 147.665 125.886 147.665 125.68V125.68C147.665 125.474 147.498 125.307 147.292 125.307Z" fill="#262626"/>
<path d="M229.444 185.737H105.076C103.291 185.737 101.58 185.028 100.318 183.766C99.0562 182.505 98.3473 180.793 98.3473 179.008V106.051L167.26 140.113L236.172 106.051V179.008C236.172 179.892 235.998 180.767 235.66 181.583C235.322 182.4 234.826 183.142 234.201 183.766C233.577 184.391 232.835 184.887 232.018 185.225C231.202 185.563 230.327 185.737 229.444 185.737Z" fill="#367CFF"/>
<path opacity="0.78" d="M229.444 185.737H105.076C103.291 185.737 101.58 185.028 100.318 183.766C99.0562 182.505 98.3473 180.793 98.3473 179.008V106.051L167.26 140.113L236.172 106.051V179.008C236.172 179.892 235.998 180.767 235.66 181.583C235.322 182.4 234.826 183.142 234.201 183.766C233.577 184.391 232.835 184.887 232.018 185.225C231.202 185.563 230.327 185.737 229.444 185.737Z" fill="white"/>
<path d="M229.444 186.037H105.076C103.213 186.035 101.426 185.294 100.108 183.976C98.7905 182.659 98.0493 180.872 98.0472 179.008V106.051C98.0472 106 98.0602 105.95 98.0851 105.905C98.1099 105.86 98.1457 105.823 98.1891 105.796C98.2325 105.769 98.282 105.754 98.333 105.751C98.384 105.749 98.4348 105.759 98.4806 105.782L167.26 139.778L236.039 105.782C236.085 105.759 236.136 105.749 236.187 105.751C236.238 105.754 236.287 105.769 236.331 105.796C236.374 105.823 236.41 105.86 236.435 105.905C236.459 105.95 236.472 106 236.472 106.051V179.008C236.47 180.872 235.729 182.659 234.411 183.976C233.094 185.294 231.307 186.035 229.444 186.037ZM98.6474 106.534V179.008C98.6494 180.713 99.3274 182.347 100.533 183.552C101.738 184.757 103.372 185.435 105.076 185.437H229.444C231.148 185.435 232.782 184.757 233.987 183.552C235.192 182.347 235.87 180.713 235.872 179.008V106.534L167.393 140.382C167.351 140.402 167.306 140.413 167.26 140.413C167.214 140.413 167.168 140.402 167.127 140.382L98.6474 106.534Z" fill="#292A2E"/>
<path d="M267.617 202.346C267.666 202.346 267.714 202.333 267.755 202.307C267.796 202.281 267.83 202.244 267.851 202.201L274.694 188.162C274.722 188.101 274.724 188.031 274.701 187.967C274.678 187.904 274.632 187.851 274.571 187.822C274.51 187.792 274.44 187.787 274.376 187.808C274.312 187.829 274.259 187.875 274.227 187.934L267.384 201.973C267.365 202.012 267.356 202.056 267.359 202.1C267.361 202.144 267.374 202.187 267.398 202.224C267.421 202.261 267.453 202.292 267.492 202.314C267.53 202.335 267.573 202.346 267.617 202.346Z" fill="#292A2E"/>
<path d="M256.047 201.532C256.105 201.532 256.161 201.512 256.206 201.477C256.251 201.442 256.284 201.393 256.298 201.338L264.218 171.1C264.227 171.067 264.229 171.032 264.224 170.999C264.22 170.965 264.209 170.932 264.191 170.903C264.174 170.874 264.151 170.848 264.124 170.827C264.097 170.807 264.066 170.792 264.033 170.783C264 170.774 263.966 170.772 263.932 170.777C263.899 170.781 263.866 170.793 263.837 170.81C263.807 170.827 263.781 170.85 263.761 170.877C263.74 170.904 263.725 170.935 263.717 170.968L255.796 201.206C255.779 201.273 255.788 201.344 255.823 201.403C255.858 201.462 255.915 201.506 255.981 201.523C256.003 201.529 256.025 201.532 256.047 201.532Z" fill="#292A2E"/>
<path d="M240.938 202.87C240.981 202.87 241.023 202.86 241.061 202.84C241.099 202.819 241.131 202.79 241.155 202.754C241.179 202.719 241.193 202.678 241.197 202.635C241.201 202.593 241.195 202.549 241.178 202.51L232.99 183.229C232.963 183.166 232.912 183.116 232.849 183.09C232.785 183.064 232.713 183.064 232.65 183.091C232.587 183.118 232.537 183.169 232.511 183.233C232.485 183.297 232.486 183.368 232.512 183.431L240.7 202.714C240.72 202.76 240.753 202.8 240.796 202.827C240.838 202.855 240.887 202.87 240.938 202.87Z" fill="#292A2E"/>
<path d="M255.754 207.338C255.775 207.338 255.796 207.335 255.817 207.33C255.884 207.313 255.941 207.271 255.976 207.211C256.012 207.152 256.022 207.082 256.006 207.015L246.492 168.956C246.484 168.923 246.469 168.891 246.449 168.864C246.428 168.837 246.403 168.814 246.374 168.796C246.344 168.779 246.312 168.767 246.278 168.762C246.245 168.757 246.21 168.759 246.177 168.767C246.144 168.775 246.113 168.79 246.086 168.81C246.058 168.831 246.035 168.856 246.018 168.885C246 168.914 245.989 168.947 245.984 168.981C245.979 169.014 245.98 169.049 245.989 169.082L255.502 207.141C255.516 207.197 255.548 207.247 255.594 207.283C255.64 207.318 255.696 207.338 255.754 207.338Z" fill="#292A2E"/>
<path d="M252.381 176.755C254.962 171.329 253.277 165.133 248.618 162.917C243.959 160.701 238.09 163.303 235.509 168.729C232.927 174.155 234.612 180.351 239.271 182.567C243.93 184.783 249.799 182.181 252.381 176.755Z" fill="#0CBC8B"/>
<path opacity="0.4" d="M252.381 176.755C254.962 171.329 253.277 165.133 248.618 162.917C243.959 160.701 238.09 163.303 235.509 168.729C232.927 174.155 234.612 180.351 239.271 182.567C243.93 184.783 249.799 182.181 252.381 176.755Z" fill="white"/>
<path d="M236.369 189.282C237.715 185.939 236.536 182.315 233.734 181.187C230.933 180.058 227.57 181.854 226.224 185.197C224.878 188.54 226.057 192.164 228.859 193.293C231.66 194.421 235.022 192.625 236.369 189.282Z" fill="#0CBC8B"/>
<path d="M269.378 184.993C273.539 183.731 275.657 178.567 274.108 173.46C272.559 168.353 267.929 165.236 263.768 166.499C259.607 167.761 257.489 172.924 259.038 178.031C260.587 183.138 265.216 186.255 269.378 184.993Z" fill="#0CBC8B"/>
<path d="M276.426 195.861C278.748 195.472 280.187 192.507 279.64 189.239C279.093 185.97 276.767 183.635 274.445 184.024C272.123 184.412 270.684 187.377 271.231 190.646C271.778 193.914 274.104 196.249 276.426 195.861Z" fill="#0CBC8B"/>
<path d="M233.302 207.694H273.715V197.624H233.302V207.694Z" fill="#292A2E"/>
<path opacity="0.3" d="M233.302 207.694H273.715V197.624H233.302V207.694Z" fill="white"/>
<path d="M252.458 195.093C254.1 191.015 252.648 186.588 249.215 185.206C245.782 183.823 241.668 186.008 240.025 190.086C238.383 194.164 239.834 198.591 243.267 199.974C246.701 201.356 250.815 199.171 252.458 195.093Z" fill="#0CBC8B"/>
<path d="M261.426 198.963C264.846 198.963 267.618 196.191 267.618 192.771C267.618 189.352 264.846 186.58 261.426 186.58C258.007 186.58 255.235 189.352 255.235 192.771C255.235 196.191 258.007 198.963 261.426 198.963Z" fill="#0CBC8B"/>
<path opacity="0.68" d="M236.369 189.282C237.715 185.939 236.536 182.315 233.734 181.187C230.933 180.058 227.57 181.854 226.224 185.197C224.878 188.54 226.057 192.164 228.859 193.293C231.66 194.421 235.022 192.625 236.369 189.282Z" fill="white"/>
<path opacity="0.68" d="M269.378 184.993C273.539 183.731 275.657 178.567 274.108 173.46C272.559 168.353 267.929 165.236 263.768 166.499C259.607 167.761 257.489 172.924 259.038 178.031C260.587 183.138 265.216 186.255 269.378 184.993Z" fill="white"/>
<path opacity="0.68" d="M276.426 195.861C278.748 195.472 280.187 192.507 279.64 189.239C279.093 185.97 276.767 183.635 274.445 184.024C272.123 184.412 270.684 187.377 271.231 190.646C271.778 193.914 274.104 196.249 276.426 195.861Z" fill="white"/>
<path opacity="0.68" d="M252.458 195.093C254.1 191.015 252.648 186.588 249.215 185.206C245.782 183.823 241.668 186.008 240.025 190.086C238.383 194.164 239.834 198.591 243.267 199.974C246.701 201.356 250.815 199.171 252.458 195.093Z" fill="white"/>
<path opacity="0.4" d="M261.426 198.963C264.846 198.963 267.618 196.191 267.618 192.771C267.618 189.352 264.846 186.58 261.426 186.58C258.007 186.58 255.235 189.352 255.235 192.771C255.235 196.191 258.007 198.963 261.426 198.963Z" fill="white"/>
<path d="M241.538 187.559C246.238 188.872 248.711 185.032 248.711 185.032L248.708 185.026C246.203 184.279 243.424 185.33 241.538 187.559Z" fill="#292A2E"/>
<path d="M271.223 189.132C273.536 188.246 275.453 186.556 276.623 184.373C275.989 184.034 275.262 183.911 274.552 184.023C272.595 184.349 271.267 186.505 271.223 189.132Z" fill="#292A2E"/>
<path d="M260.322 186.68C262.124 188.303 264.376 189.343 266.78 189.661C266.14 188.561 265.177 187.685 264.021 187.151C262.866 186.618 261.574 186.453 260.322 186.68Z" fill="#292A2E"/>
<path d="M288.6 207.602H10.8671C10.761 207.602 10.6592 207.559 10.5842 207.484C10.5091 207.409 10.467 207.308 10.467 207.201C10.467 207.095 10.5091 206.994 10.5842 206.919C10.6592 206.843 10.761 206.801 10.8671 206.801H288.6C288.706 206.801 288.808 206.843 288.883 206.919C288.958 206.994 289 207.095 289 207.201C289 207.308 288.958 207.409 288.883 207.484C288.808 207.559 288.706 207.602 288.6 207.602Z" fill="#292A2E"/>
<path d="M159.105 80.4794L154.019 90.7516L154.102 89.1969C154.119 88.6944 153.945 88.2041 153.614 87.8252C153.284 87.4463 152.821 87.2071 152.321 87.1561C152.062 87.1387 151.802 87.1742 151.558 87.2605C151.313 87.3468 151.088 87.4821 150.897 87.6581C150.707 87.8341 150.554 88.0471 150.448 88.2842C150.342 88.5212 150.286 88.7773 150.283 89.0369L149.963 108.281L156.127 108.539C158.042 108.619 159.938 108.126 161.57 107.122C163.203 106.118 164.499 104.65 165.291 102.904L168.867 94.9941C169.06 94.5865 169.107 94.1246 169 93.6865C168.892 93.2483 168.636 92.8608 168.276 92.5895C167.945 92.3517 167.547 92.2257 167.14 92.2299C166.732 92.2342 166.337 92.3684 166.011 92.6131C165.996 92.5861 165.974 92.5636 165.947 92.5479C165.921 92.5345 165.892 92.5277 165.863 92.5283C165.833 92.5288 165.805 92.5367 165.779 92.5511L166.442 91.0933C166.659 90.6399 166.696 90.1211 166.545 89.6416C166.394 89.1621 166.067 88.7578 165.629 88.5102C165.231 88.3029 164.772 88.2427 164.333 88.3403C163.894 88.438 163.504 88.6872 163.231 89.0441C163.223 89.0253 163.213 89.0079 163.199 88.9928L163.471 88.3926C163.665 87.9852 163.712 87.5233 163.604 87.0852C163.497 86.647 163.241 86.2596 162.88 85.9884C162.479 85.6994 161.982 85.577 161.492 85.6469C161.003 85.7168 160.559 85.9736 160.255 86.3634C160.243 86.3586 160.23 86.3551 160.217 86.353L162.335 82.0748C162.547 81.6465 162.581 81.1514 162.428 80.6984C162.275 80.2454 161.949 79.8717 161.52 79.6595C161.092 79.4472 160.597 79.4138 160.144 79.5666C159.691 79.7194 159.317 80.0459 159.105 80.4742V80.4794Z" fill="#E98862"/>
<path opacity="0.2" d="M160.37 86.5543C160.367 86.575 160.36 86.5951 160.351 86.6139L158.246 90.7452C158.235 90.7662 158.22 90.7849 158.203 90.8002C158.185 90.8155 158.164 90.8272 158.141 90.8345C158.119 90.8418 158.095 90.8446 158.072 90.8428C158.048 90.8409 158.025 90.8345 158.004 90.8238C157.983 90.8131 157.965 90.7984 157.949 90.7804C157.934 90.7625 157.922 90.7417 157.915 90.7193C157.908 90.6969 157.905 90.6733 157.907 90.6497C157.909 90.6262 157.915 90.6033 157.926 90.5823L160.031 86.4506C160.05 86.4132 160.082 86.3837 160.121 86.3673C160.16 86.3509 160.203 86.3487 160.243 86.3611C160.284 86.3734 160.318 86.3995 160.341 86.4348C160.364 86.4702 160.374 86.5124 160.369 86.5543H160.37Z" fill="#0A0A0A"/>
<path opacity="0.2" d="M163.245 89.1277C163.242 89.1481 163.236 89.1678 163.227 89.1861L161.598 92.4462C161.588 92.4687 161.574 92.489 161.556 92.5058C161.539 92.5226 161.518 92.5356 161.495 92.544C161.472 92.5524 161.447 92.5561 161.423 92.5547C161.398 92.5533 161.375 92.547 161.353 92.5361C161.331 92.5251 161.311 92.5098 161.296 92.4911C161.28 92.4725 161.268 92.4507 161.261 92.4273C161.254 92.4039 161.252 92.3793 161.255 92.3551C161.258 92.3308 161.265 92.3073 161.278 92.2862L162.907 89.0261C162.926 88.9881 162.957 88.958 162.996 88.9411C163.035 88.9242 163.079 88.9217 163.119 88.9339C163.16 88.9461 163.195 88.9723 163.218 89.0079C163.241 89.0435 163.251 89.086 163.246 89.1281L163.245 89.1277Z" fill="#0A0A0A"/>
<path opacity="0.2" d="M166.04 92.7308C166.037 92.7524 166.031 92.7734 166.021 92.7928L165.215 94.3134C165.205 94.3352 165.19 94.3546 165.172 94.3705C165.154 94.3864 165.132 94.3985 165.109 94.4061C165.086 94.4136 165.062 94.4165 165.038 94.4144C165.014 94.4124 164.991 94.4055 164.969 94.3942C164.948 94.3828 164.929 94.3673 164.914 94.3486C164.899 94.3298 164.887 94.3082 164.881 94.2849C164.874 94.2617 164.872 94.2374 164.875 94.2134C164.878 94.1894 164.886 94.1662 164.898 94.1453L165.703 92.6247C165.723 92.5877 165.755 92.5588 165.794 92.5429C165.833 92.527 165.876 92.5253 165.916 92.5378C165.956 92.5504 165.99 92.5766 166.013 92.6118C166.036 92.6471 166.045 92.6891 166.04 92.7308Z" fill="#0A0A0A"/>
<path d="M146.892 95.4951L131.81 138.753L107.3 106.7L84.3656 125.862L126.736 171.109C128.243 172.83 130.179 174.122 132.347 174.853C134.515 175.583 136.838 175.726 139.08 175.268C141.321 174.809 143.401 173.765 145.108 172.242C146.815 170.719 148.088 168.77 148.798 166.595L169.45 102.898L146.892 95.4951Z" fill="#367CFF"/>
<path d="M13.046 188.359C10.944 188.36 8.87305 187.852 7.00954 186.879C5.14604 185.907 3.54515 184.498 2.34317 182.774C1.1412 181.049 0.373742 179.06 0.106144 176.975C-0.161455 174.89 0.0787315 172.771 0.806252 170.799C1.54455 168.798 18.9236 121.665 22.2185 113.173L46.5456 122.611C44.6932 127.386 37.9821 145.485 32.5879 160.066L41.5467 159.092L44.3671 185.033L14.4578 188.283C13.9889 188.334 13.5176 188.36 13.046 188.359Z" fill="#367CFF"/>
<path d="M28.6811 187.027L24.7027 206.83H101.975L97.5242 186.65L28.6811 187.027Z" fill="#262626"/>
<path d="M45.3887 98.5299C38.9325 99.0101 32.3494 101.107 27.5015 105.397C20.1901 111.87 20.8408 115.915 24.4906 133.838C27.6311 149.259 26.385 155.998 28.4859 184.455C28.5479 185.295 28.6803 187.027 28.6803 187.027L97.7427 186.912C97.7427 186.912 104.213 149.158 107.787 131.744C110.504 118.505 117.64 102.434 87.5505 99.195C87.4713 99.1866 63.3387 97.1978 45.3887 98.5299Z" fill="#367CFF"/>
<path d="M87.5505 99.195C87.4705 99.1846 85.2784 107.434 68.1715 106.15C56.3267 105.263 53.4407 97.2018 53.1694 97.2018C54.4464 96.9301 56.5196 96.6483 57.087 96.3458C58.9518 95.3454 60.3103 94.1241 60.9938 91.5063C61.5288 89.459 61.8013 81.5782 61.8013 77.6242L80.0251 81.7191C79.771 86.1797 77.9931 96.5195 84.2244 98.3498C85.2612 98.6536 86.3781 98.9321 87.5505 99.195Z" fill="#E98862"/>
<path d="M79.3928 90.4894C72.2087 91.0565 62.9798 88.0228 61.2255 78.4378L59.6437 69.7891C57.8909 60.204 61.504 51.5129 70.5281 49.861C79.5529 48.2103 87.7198 54.747 89.4729 64.3321L90.1732 68.1612C90.8491 71.8403 92.2128 89.4782 79.3928 90.4894Z" fill="#E98862"/>
<path d="M86.0559 81.6891C84.7662 75.2097 84.1752 70.8847 84.2436 66.3257C86.0599 63.1396 85.5825 59.4829 85.1696 57.9027C86.9499 58.8739 87.6942 58.9799 89.3713 58.9799C89.3713 58.9799 86.3673 46.9242 76.1571 43.6801C74.28 42.9494 69.4864 42.0266 63.1215 42.8994C57.7077 43.6421 44.3631 47.6897 42.4567 62.7134V62.7218C42.3935 63.22 41.1122 77.0624 38.5579 83.7035C35.1237 92.6315 30.3026 95.4058 30.425 105.706C30.5823 118.957 54.9413 120.72 69.6337 119.729C84.326 118.738 92.5278 113.907 92.6342 104.358C92.7506 93.6591 88.6366 94.6527 86.0559 81.6891Z" fill="#0A0A0A"/>
<path d="M86.0599 76.2577C83.3176 76.7591 80.5577 74.2317 80.0575 71.489C79.5573 68.7462 81.5025 66.8275 84.2452 66.3269L86.0599 76.2577Z" fill="#E98862"/>
<path d="M104.591 149.162C104.581 149.162 104.57 149.16 104.559 149.158C104.537 149.154 104.515 149.146 104.496 149.133C104.477 149.121 104.46 149.105 104.448 149.086C104.435 149.067 104.426 149.046 104.421 149.023C104.416 149.001 104.416 148.978 104.42 148.955L107.316 130.815C107.326 130.771 107.353 130.733 107.391 130.709C107.428 130.684 107.474 130.675 107.518 130.684C107.562 130.692 107.601 130.717 107.627 130.754C107.653 130.79 107.664 130.835 107.658 130.88L104.763 149.02C104.756 149.06 104.734 149.096 104.703 149.122C104.672 149.148 104.632 149.162 104.591 149.162Z" fill="#0C0C0C"/>
<path d="M28.6811 187.201C28.6362 187.201 28.593 187.184 28.5606 187.153C28.5283 187.121 28.5092 187.079 28.5075 187.034L26.3434 130.854C26.3415 130.808 26.3581 130.763 26.3894 130.729C26.4207 130.695 26.4641 130.675 26.5103 130.673C26.5558 130.674 26.5995 130.691 26.6329 130.722C26.6663 130.753 26.6869 130.795 26.6907 130.841L28.8552 187.02C28.8569 187.067 28.8403 187.112 28.8089 187.146C28.7776 187.179 28.7341 187.199 28.6879 187.201H28.6811Z" fill="#0C0C0C"/>
</svg>
