<svg width="20" height="20" viewBox="0 0 20 20" fill="none" xmlns="http://www.w3.org/2000/svg">
<path d="M14.93 15.12L14.13 13.76L15.59 9.39L17 8.92L18 9.67C18 9.7 18 9.75 18 9.81C18 9.88 18.03 9.94 18.03 10C18.03 11.97 17.37 13.71 16.06 15.21L14.93 15.12ZM7.75 13L6.38 8.97L10 6.43L13.62 8.97L12.25 13H7.75ZM10 18.03C9.12 18.03 8.29 17.89 7.5 17.61L6.81 16.1L7.47 15H12.58L13.19 16.1L12.5 17.61C11.71 17.89 10.88 18.03 10 18.03ZM3.94 15.21C3.41 14.59 2.95 13.76 2.56 12.75C2.17 11.73 1.97 10.81 1.97 10C1.97 9.94 2 9.88 2 9.81C2 9.75 2 9.7 2 9.67L3 8.92L4.41 9.39L5.87 13.76L5.07 15.12L3.94 15.21ZM9 3.29V4.69L5 7.46L3.66 7.04L3.24 5.68C3.68 5 4.33 4.32 5.19 3.66C6.05 3 6.87 2.57 7.65 2.35L9 3.29ZM12.35 2.35C13.13 2.57 13.95 3 14.81 3.66C15.67 4.32 16.32 5 16.76 5.68L16.34 7.04L15 7.47L11 4.7V3.29L12.35 2.35ZM2.93 2.93C1 4.89 0 7.25 0 10C0 12.75 1 15.11 2.93 17.07C4.86 19.03 7.25 20 10 20C12.75 20 15.11 19 17.07 17.07C19.03 15.14 20 12.75 20 10C20 7.25 19 4.89 17.07 2.93C15.14 0.97 12.75 0 10 0C7.25 0 4.89 1 2.93 2.93Z" fill="white"/>
</svg>
